<svg width="24" height="24" viewBox="0 0 24 24" fill="none" xmlns="http://www.w3.org/2000/svg">
<path d="M0 6C0 2.68629 2.68629 0 6 0H18C21.3137 0 24 2.68629 24 6V18C24 21.3137 21.3137 24 18 24H6C2.68629 24 0 21.3137 0 18V6Z" fill="#374A16"/>
<path d="M18.5729 6.86982C17.412 6.75445 16.2511 6.66792 15.083 6.60303V6.59582L14.9244 5.65844C14.8162 4.99506 14.6576 4 12.9703 4H11.0811C9.40104 4 9.24241 4.9518 9.12704 5.65123L8.97562 6.57418C8.30503 6.61745 7.63445 6.66071 6.96386 6.72561L5.4929 6.86982C5.19005 6.89866 4.97374 7.16545 5.00258 7.46109C5.03142 7.75672 5.291 7.97304 5.59385 7.9442L7.06481 7.79999C10.8432 7.42504 14.6504 7.56925 18.472 7.95141H18.5297C18.8037 7.95141 19.0416 7.7423 19.0705 7.46109C19.0921 7.16545 18.8758 6.89866 18.5729 6.86982Z" fill="white"/>
<path d="M17.2456 8.96782C17.0725 8.78755 16.8345 8.6866 16.5894 8.6866H7.47522C7.23006 8.6866 6.9849 8.78755 6.81906 8.96782C6.65321 9.14808 6.55948 9.39324 6.5739 9.64561L7.02096 17.0437C7.10027 18.1397 7.20122 19.5097 9.71772 19.5097H14.3469C16.8634 19.5097 16.9644 18.1469 17.0437 17.0437L17.4907 9.65282C17.5051 9.39324 17.4114 9.14808 17.2456 8.96782ZM13.2292 15.8972H10.8281C10.5325 15.8972 10.2874 15.652 10.2874 15.3564C10.2874 15.0608 10.5325 14.8156 10.8281 14.8156H13.2292C13.5249 14.8156 13.77 15.0608 13.77 15.3564C13.77 15.652 13.5249 15.8972 13.2292 15.8972ZM13.8349 13.013H10.2297C9.93404 13.013 9.68888 12.7678 9.68888 12.4722C9.68888 12.1765 9.93404 11.9314 10.2297 11.9314H13.8349C14.1306 11.9314 14.3757 12.1765 14.3757 12.4722C14.3757 12.7678 14.1306 13.013 13.8349 13.013Z" fill="white"/>
</svg>
