<svg width="24" height="24" viewBox="0 0 24 24" fill="none" xmlns="http://www.w3.org/2000/svg">
<rect width="24" height="24" fill="#C7C7C7"/>
<g clip-path="url(#clip0_1546_3737)">
<rect width="1728" height="1117" transform="translate(-1608 -489)" fill="#EAF4D8"/>
<path d="M-1302 -62H90V590C90 596.627 84.6274 602 78 602H-1290C-1296.63 602 -1302 596.627 -1302 590V-62Z" fill="white"/>
<path d="M17.0365 0H6.97548C2.6053 0 0 2.604 0 6.972V17.016C0 21.396 2.6053 24 6.97548 24H17.0245C21.3947 24 24 21.396 24 17.028V6.972C24.012 2.604 21.4067 0 17.0365 0ZM10.7454 18.612C10.3972 18.96 9.73685 19.296 9.25661 19.368L6.30314 19.788C6.19509 19.8 6.08703 19.812 5.97898 19.812C5.48673 19.812 5.03051 19.644 4.70635 19.32C4.31015 18.924 4.14206 18.348 4.23811 17.712L4.65832 14.76C4.73036 14.268 5.05452 13.62 5.4147 13.272L10.7694 7.92C10.8654 8.172 10.9615 8.424 11.0935 8.712C11.2136 8.964 11.3457 9.228 11.4897 9.468C11.6098 9.672 11.7419 9.864 11.8499 10.008C11.982 10.212 12.138 10.404 12.2341 10.512C12.2941 10.596 12.3421 10.656 12.3662 10.68C12.6663 11.04 13.0145 11.376 13.3146 11.628C13.3987 11.712 13.4467 11.76 13.4707 11.772C13.6508 11.916 13.8309 12.06 13.987 12.168C14.1791 12.312 14.3712 12.444 14.5753 12.552C14.8154 12.696 15.0795 12.828 15.3436 12.96C15.6198 13.08 15.8719 13.188 16.124 13.272L10.7454 18.612ZM18.4532 10.908L17.3486 12.024C17.2766 12.096 17.1806 12.132 17.0845 12.132C17.0485 12.132 17.0005 12.132 16.9765 12.12C14.5392 11.424 12.5943 9.48 11.8979 7.044C11.8619 6.912 11.8979 6.768 11.994 6.684L13.1105 5.568C14.9354 3.744 16.6763 3.78 18.4652 5.568C19.3777 6.48 19.8219 7.356 19.8219 8.268C19.8099 9.132 19.3657 9.996 18.4532 10.908Z" fill="#374A16"/>
</g>
<defs>
<clipPath id="clip0_1546_3737">
<rect width="1728" height="1117" fill="white" transform="translate(-1608 -489)"/>
</clipPath>
</defs>
</svg>
