<?xml version="1.0" encoding="utf-8"?>
<!-- Generator: Adobe Illustrator 27.6.1, SVG Export Plug-In . SVG Version: 6.00 Build 0)  -->
<svg version="1.1" id="Layer_1" xmlns="http://www.w3.org/2000/svg" xmlns:xlink="http://www.w3.org/1999/xlink" x="0px" y="0px"
	 viewBox="0 0 40 40" style="enable-background:new 0 0 40 40;" xml:space="preserve">
<path d="M16.7,16.7c0-0.1,0-0.2,0-0.2c0-4.2,0-8.4,0-12.5c0-0.7,0.1-1.4,0.4-2c0.6-1.1,1.5-1.8,2.8-1.8c1.1,0,2.1,0.5,2.7,1.4
	c0.4,0.5,0.5,1.1,0.6,1.7c0,0.3,0.1,0.6,0.1,0.9c0,4.2,0,8.3,0,12.5v0.2h0.2c4.2,0,8.4,0,12.6,0c0.6,0,1.2,0,1.8,0.3
	c1.1,0.5,1.7,1.3,2,2.4c0.3,1.1-0.4,2.7-1.5,3.4c-0.7,0.4-1.5,0.6-2.3,0.6c-4.2,0-8.4,0-12.6,0h-0.2c0,0.1,0,0.1,0,0.2
	c0,4.3,0,8.5,0,12.8c0,0.7-0.1,1.3-0.4,1.9c-0.5,0.9-1.2,1.4-2.2,1.6c-1.3,0.3-3-0.4-3.7-1.9c-0.2-0.6-0.4-1.2-0.4-1.8
	c0-4.2,0-8.4,0-12.7v-0.2c-0.1,0-0.1,0-0.2,0c-4.2,0-8.4,0-12.6,0c-0.8,0-1.6-0.1-2.3-0.6C0.6,22.1,0,21.2,0,20.1
	c0-1.5,1-3.1,3.1-3.3c0.5-0.1,1.1-0.1,1.6-0.1c3.9,0,7.9,0,11.8,0H16.7z"/>
</svg>
