<?xml version="1.0" encoding="utf-8"?>
<!-- Generator: Adobe Illustrator 27.7.0, SVG Export Plug-In . SVG Version: 6.00 Build 0)  -->
<svg version="1.1" id="Layer_1" xmlns="http://www.w3.org/2000/svg" xmlns:xlink="http://www.w3.org/1999/xlink" x="0px" y="0px"
	 viewBox="0 0 24 24" style="enable-background:new 0 0 24 24;" xml:space="preserve">
<g>
	<g>
		<path d="M22.8,21.2h-0.2v-1.8c0,0,0-0.1,0-0.1c0-1.1-0.8-2-1.7-2h-1.5V11h1.5c0.8,0,1.5-0.8,1.5-1.7V5.7c0-0.7-0.4-1.3-0.9-1.6
			l-8.8-4c-0.3-0.1-0.8-0.1-1.1,0l-8.8,4C2.1,4.3,1.7,5,1.7,5.7v3.7c0,0.9,0.7,1.7,1.5,1.7h1.4v6.3H3.2c-1,0-1.7,0.9-1.7,2v1.9H1.2
			c-0.7,0-1.2,0.6-1.2,1.4C0,23.4,0.6,24,1.2,24h21.5c0.7,0,1.2-0.6,1.2-1.4C24,21.8,23.4,21.2,22.8,21.2z M8.6,17.3h-1V11h1V17.3z
			 M12.5,17.3h-1V11h1V17.3z M16.4,17.3h-0.9V11h0.9V17.3z"/>
	</g>
</g>
</svg>
