<?xml version="1.0" encoding="utf-8"?>
<!-- Generator: Adobe Illustrator 27.6.1, SVG Export Plug-In . SVG Version: 6.00 Build 0)  -->
<svg version="1.1" id="Layer_1" xmlns="http://www.w3.org/2000/svg" xmlns:xlink="http://www.w3.org/1999/xlink" x="0px" y="0px"
	 viewBox="0 0 40.7 40" style="enable-background:new 0 0 40.7 40;" xml:space="preserve">
<path d="M8.6,23.9c0.2-2.4,0.8-4.6,1.9-6.7l0,0c-0.4-0.7-0.7-1.6-0.7-2.5c0.1-2.9,2.2-5,5.1-4.9c0.7,0,1.4,0.2,2,0.5l0,0
	c2.6-1.6,5.6-2.5,8.9-2.5h0.1c0.6,0,1.2,0,1.8,0.1C25.4,3.4,20.9,0,14.5,0C6.8,0,0.1,6.3,0,14.5C-0.1,20.8,3.7,26,8.8,28.2
	c-0.2-1.1-0.3-2.1-0.3-3.2c0-0.2,0-0.5,0-0.7 M5.2,21.2c-1-1.3-1.5-2.7-1.8-4.2c1.1-0.1,2.2-0.3,3.3-0.4c0.3,0.8,0.7,1.6,1,2.5
	C7,19.7,6.2,20.4,5.2,21.2z M6.7,12.9c-1.1-0.1-2.2-0.2-3.3-0.4C3.7,11,4.3,9.6,5.2,8.3C6.1,9,7,9.7,7.8,10.4
	C7.4,11.2,7.1,12.1,6.7,12.9z M10.4,7.8C9.7,7,9,6.1,8.2,5.2c1.3-0.9,2.7-1.5,4.2-1.8c0.1,1.1,0.3,2.2,0.4,3.3
	C12.1,7.1,11.2,7.4,10.4,7.8z M19,7.8c-0.8-0.4-1.7-0.7-2.5-1.1c0.1-1.1,0.3-2.2,0.4-3.2c1.2,0,3.6,1.1,4.2,1.8
	C20.4,6.2,19.7,7,19,7.8z M28.2,14.1c0.3,0,0.8,0.1,1.2,0.2c-0.1-1.2-0.2-2.3-0.6-3.4c-0.9-0.2-2-0.3-3-0.3h0c-0.1,0-0.2,0-0.4,0
	c0.2,0.6,0.4,1.3,0.6,1.9c-1.2,0.1-2.2,0.2-3.3,0.4c-0.3-0.6-0.5-1.2-0.8-1.8c-1,0.3-2,0.7-3,1.2c0.4,0.7,0.6,1.5,0.6,2.4
	c0,1.9-1.1,3.6-2.7,4.4c0.8,0.6,1.5,1.2,2.2,1.8c-0.1,0.3-0.2,0.5-0.3,0.8c0.1,0,0.2-0.1,0.3-0.1c0.7,0.8,1.4,1.7,2.2,2.6
	c-1.4,0.9-2.7,1.5-4.3,1.7c-0.1-0.9-0.2-1.8-0.3-2.7c-0.6-0.1-1.2-0.1-1.9-0.2c0.3-1.3,0.7-2.5,1.4-3.7c-0.5,0.1-0.9,0.2-1.5,0.2
	c-0.7,0-1.4-0.2-2.1-0.5c-0.4,0.9-0.8,1.9-1,3c0.4,0.2,0.8,0.4,1.3,0.6c-0.1,1.1-0.2,2.2-0.3,3.2c-0.3,0-0.8-0.1-1.2-0.3
	c0,1.2,0.2,2.4,0.5,3.5c0.9,0.2,1.8,0.3,2.7,0.2c0.2,0,0.5,0,0.7,0c-0.2-0.6-0.4-1.2-0.5-1.9c1.1-0.1,2.2-0.3,3.3-0.4
	c0.2,0.6,0.5,1.1,0.7,1.7c1.1-0.3,2.1-0.7,3-1.2c-0.4-0.7-0.6-1.5-0.6-2.4c0-2,1.1-3.7,2.7-4.4c-0.8-0.6-1.5-1.2-2.2-1.8
	c0.1-0.3,0.2-0.5,0.3-0.8c-0.1,0-0.2,0.1-0.3,0.1c-0.7-0.8-1.4-1.7-2.1-2.6c1.3-0.9,2.7-1.4,4.2-1.8c0.1,0.9,0.2,1.8,0.3,2.7
	c0.6,0.1,1.2,0.1,1.9,0.2c-0.2,1.3-0.7,2.5-1.4,3.6c0.4-0.1,0.9-0.2,1.4-0.2c0.1,0,0.1,0,0.2,0c0.7,0,1.3,0.2,1.9,0.5
	c0.4-1,0.8-2,1-3c-0.4-0.2-0.8-0.4-1.3-0.6C27.9,16.2,28.1,15.1,28.2,14.1z"/>
<path d="M28.8,10.9c-0.9-0.2-2-0.3-3-0.3h0c-0.1,0-0.2,0-0.4,0c-1.2,0-2.4,0.2-3.5,0.5c-1,0.3-2,0.7-3,1.2c-2.8,1.5-5,3.9-6.4,6.8
	c-0.4,0.9-0.8,1.9-1,3c-0.2,0.9-0.3,1.9-0.3,2.9c0,0.2,0,0.4,0,0.7c0,1.2,0.2,2.4,0.5,3.5C13.6,35.6,19.4,40,25.6,40h0.2
	c9.2-0.1,14.7-7,14.9-14.6C40.6,18.9,36.3,12.3,28.8,10.9z M35.5,18.8c0.9,1.3,1.5,2.7,1.8,4.3c-1.2,0.1-2.2,0.2-3.3,0.4
	c-0.4-0.9-0.7-1.6-1.1-2.5C33.7,20.3,34.5,19.6,35.5,18.8z M28.2,14.1c0.3,0,0.8,0.1,1.2,0.2c1.2,0.4,2.5,1,3,1.6
	c-0.7,0.8-1.4,1.7-2.1,2.5c-0.4-0.2-0.8-0.4-1.3-0.6c-0.4-0.2-0.8-0.4-1.3-0.6C27.9,16.2,28.1,15.1,28.2,14.1z M23.8,14
	c0.1,0.9,0.2,1.8,0.3,2.7c0,0.2,0,0.4,0.1,0.6c-0.7,0.3-1.5,0.6-2.2,1c-0.1,0-0.2,0.1-0.3,0.1c-0.7-0.8-1.4-1.7-2.1-2.6
	C20.9,14.8,22.2,14.3,23.8,14z M16.5,18.8c0.1,0.1,0.2,0.2,0.4,0.3c0.8,0.6,1.5,1.2,2.2,1.8c-0.1,0.3-0.2,0.5-0.3,0.8
	c-0.3,0.6-0.5,1.2-0.8,1.8c-0.5,0-0.9-0.1-1.4-0.2c-0.6-0.1-1.2-0.1-1.9-0.2c0.3-1.3,0.7-2.5,1.4-3.7C16.2,19.2,16.4,19,16.5,18.8z
	 M16.5,31.7c-0.6-0.7-1-1.5-1.3-2.3c-0.2-0.6-0.4-1.2-0.5-1.9c1.1-0.1,2.2-0.3,3.3-0.4c0.2,0.6,0.5,1.1,0.7,1.7
	c0.1,0.3,0.2,0.5,0.3,0.8C18.3,30.3,17.4,31,16.5,31.7z M23.8,36.5c-1.2-0.1-3.3-1-4.2-1.8c0.7-0.8,1.4-1.7,2-2.5
	c0.9,0.4,1.7,0.7,2.5,1.1C24,34.4,23.9,35.4,23.8,36.5z M25.9,30.2c-1.8,0-3.4-1-4.2-2.5c-0.4-0.7-0.6-1.5-0.6-2.4
	c0-2,1.1-3.7,2.7-4.4c0.2-0.1,0.5-0.2,0.8-0.3c0.4-0.1,0.9-0.2,1.4-0.2c0.1,0,0.1,0,0.2,0c0.7,0,1.3,0.2,1.9,0.5
	c1.6,0.8,2.8,2.5,2.8,4.5C30.9,28.1,28.7,30.2,25.9,30.2C26,30.2,25.9,30.2,25.9,30.2z M28.2,36.6c-0.1-1.1-0.3-2.2-0.4-3.3
	c0.8-0.4,1.6-0.7,2.5-1.1c0.7,0.8,1.4,1.7,2.2,2.6C31.1,35.7,29.8,36.3,28.2,36.6z M35.5,31.7c-0.9-0.7-1.8-1.4-2.6-2.1
	c0.4-0.8,0.7-1.6,1.1-2.5c1.1,0.1,2.1,0.2,3.3,0.4C37,29.1,36.4,30.4,35.5,31.7z"/>
</svg>
