<?xml version="1.0" encoding="UTF-8"?>
<svg id="Layer_1" data-name="Layer 1" xmlns="http://www.w3.org/2000/svg" viewBox="0 0 24 24">
  <path d="m20.99,2.46c.18.24-.12.54-.42.48-.54-.18-1.2-.24-1.8-.24h-3.97c-.18,0-.36-.06-.48-.24l-1.38-1.86c-.18-.24,0-.6.3-.6h3.31c1.86,0,3.49.96,4.45,2.46Z"/>
  <path d="m21.83,5.46c-.54-.36-1.08-.66-1.74-.78-.42-.12-.9-.18-1.32-.18h-4.45c-.72,0-.72-.06-1.14-.54l-1.68-2.22c-.78-1.08-1.44-1.74-3.37-1.74h-2.83C2.41,0,0,2.4,0,5.28v13.38c0,2.94,2.41,5.34,5.29,5.34h13.41c2.95,0,5.29-2.4,5.29-5.28v-8.94c.06-1.8-.84-3.36-2.17-4.32Zm-6.92,11.76h-5.77c-.48,0-.84-.36-.84-.84s.36-.84.84-.84h5.77c.48,0,.84.36.84.84,0,.48-.36.84-.84.84Z"/>
</svg>