<?xml version="1.0" encoding="utf-8"?>
<!-- Generator: Adobe Illustrator 27.7.0, SVG Export Plug-In . SVG Version: 6.00 Build 0)  -->
<svg version="1.1" xmlns="http://www.w3.org/2000/svg" xmlns:xlink="http://www.w3.org/1999/xlink" x="0px" y="0px"
	 viewBox="0 0 30.7 16.5" style="enable-background:new 0 0 30.7 16.5;" xml:space="preserve">
<style type="text/css">
	.st0{fill:#4A484B;}
	.st1{fill:#FFFFFF;}
	.st2{fill:#96C93C;}
	.st3{display:none;}
	.st4{display:inline;fill:#96C93C;}
</style>
<g id="Layer_1">
	
		<image style="overflow:visible;" width="399" height="78" xlink:href="C:\Users\Mike\Downloads\image_2023_05_15T01_47_58_699Z.png"  transform="matrix(1 0 0 1 -578.1959 51.0427)">
	</image>
	<rect x="-554.8" y="337.3" style="fill:none;" width="280.4" height="42.4"/>
	
		<text transform="matrix(1 0 0 1 -554.6488 378.9236)" class="st0" style="font-family:'BrotedYoungplant-Thin'; font-size:49px; letter-spacing:14;">HORIZON</text>
	<g>
		<g>
			<g>
				<path class="st0" d="M-38.6-46.9c0.1,0,0.2,0,0.2-0.1v5.9h-1v-5.6c0.1,0,0.2-0.1,0.3-0.1C-39-46.8-38.8-46.9-38.6-46.9"/>
				<path class="st0" d="M-38.7-48.5c-0.2,0-0.3,0.1-0.5,0.1c-0.1,0-0.2,0-0.3,0.1v-10.5h1v9.2h3.9c-0.5,0.1-1.1,0.3-1.6,0.4h-2.2
					v0.6C-38.5-48.5-38.6-48.5-38.7-48.5"/>
				<rect x="-30.3" y="-58.8" class="st0" width="1" height="17.7"/>
			</g>
			<g>
				<path class="st1" d="M-17.7-52.6c0,0.2-0.1,0.5-0.1,0.7C-17.8-52.1-17.7-52.4-17.7-52.6L-17.7-52.6z"/>
				<path class="st0" d="M-3.7-53.3c0.2,0,0.3,0,0.5-0.1c0.1,0,0.2,0,0.3,0C-1.2-48.1-3.5-41-10-41c-5.8,0-8.5-5.5-7.9-10.3
					c0-0.1,0-0.2,0-0.3c0-0.1,0-0.2,0-0.3c0-0.2,0.1-0.5,0.2-0.7h0c0-0.1,0-0.2,0.1-0.3c0-0.1,0-0.2,0.1-0.3c1-3.2,3.4-5.8,7.4-5.8
					c3,0,5.1,1.6,6.4,3.8c-0.1,0-0.2,0-0.3,0c-0.2,0-0.3,0-0.4,0c-0.1,0-0.2,0-0.3,0c-1.1-2.1-2.9-3.6-5.4-3.6
					c-3.5,0-5.6,2.3-6.4,5.3c0,0.1,0,0.2-0.1,0.3c0,0.1,0,0.2-0.1,0.3c0,0.2-0.1,0.5-0.1,0.7c0,0.1,0,0.2,0,0.3c0,0.1,0,0.2,0,0.3
					c-0.4,4.7,2,10.1,6.8,10.2c5.5,0.1,7.4-6.8,6-11.9C-3.9-53.3-3.8-53.3-3.7-53.3"/>
			</g>
			<g>
				<path class="st0" d="M19.4-41.1h-1.1l-4.6-7.6H10v7.6H9v-17.7h4c2.1,0,3.7,0.8,4.7,1.9c-0.1,0-0.2,0-0.3,0c-0.1,0-0.3,0-0.4,0
					c-0.1,0-0.2,0-0.3,0c-0.8-0.9-2-1.6-3.6-1.5l-3,0v1.9c-0.1,0-0.2,0-0.3,0c0.1,0,0.2,0,0.3,0v7.3l3.5,0c3.3,0,4.6-3.2,4-5.8h0.3
					c0.2,0,0.4,0,0.6,0h0.3c0.7,2.5-0.6,5.5-3.9,6.1L19.4-41.1z"/>
				<path class="st0" d="M10-56.4L10-56.4c-0.1,0-0.2,0-0.3,0C9.9-56.4,10-56.4,10-56.4z"/>
			</g>
			<g>
				<rect x="30.5" y="-58.8" class="st0" width="1" height="17.7"/>
			</g>
			<g>
				<path class="st0" d="M51.3-41.5v0.4h-8.8v-0.4l5.8-12.9c0.1,0,0.2,0,0.3,0c0.2,0,0.4,0,0.6,0c0.1,0,0.2,0,0.3,0l-5.7,12.8H51.3z
					"/>
				<path class="st0" d="M51.2-58.8v0.4l-0.9,2c-0.1,0-0.2,0-0.3,0h0c-0.2,0-0.4,0-0.6,0c-0.1,0-0.2,0-0.3,0l0.9-2h-7.9v-0.4H51.2z"
					/>
			</g>
			<g>
				<path class="st0" d="M61.5-50.5c0-0.2,0-0.5,0-0.7C61.5-51,61.5-50.7,61.5-50.5c0,0.5,0,1,0.1,1.5C61.5-49.5,61.5-50,61.5-50.5z
					"/>
				<path class="st1" d="M62.2-53.7L62.2-53.7c0-0.1,0.1-0.1,0.1-0.2C62.2-53.8,62.2-53.7,62.2-53.7z M62.2-53.7L62.2-53.7
					c0-0.1,0.1-0.1,0.1-0.2C62.2-53.8,62.2-53.7,62.2-53.7z M62.2-53.7L62.2-53.7c0-0.1,0.1-0.1,0.1-0.2
					C62.2-53.8,62.2-53.7,62.2-53.7z M62.2-53.7L62.2-53.7c0-0.1,0.1-0.1,0.1-0.2C62.2-53.8,62.2-53.7,62.2-53.7z M62.2-53.7
					L62.2-53.7c0-0.1,0.1-0.1,0.1-0.2C62.2-53.8,62.2-53.7,62.2-53.7z M62.2-53.7L62.2-53.7c0-0.1,0.1-0.1,0.1-0.2
					C62.2-53.8,62.2-53.7,62.2-53.7z M62.2-53.7L62.2-53.7c0-0.1,0.1-0.1,0.1-0.2C62.2-53.8,62.2-53.7,62.2-53.7z M62.2-53.7
					L62.2-53.7c0-0.1,0.1-0.1,0.1-0.2C62.2-53.8,62.2-53.7,62.2-53.7z M62.2-53.7L62.2-53.7c0-0.1,0.1-0.1,0.1-0.2
					C62.2-53.8,62.2-53.7,62.2-53.7z M62.2-53.7L62.2-53.7c0-0.1,0.1-0.1,0.1-0.2C62.2-53.8,62.2-53.7,62.2-53.7z M62.2-53.7
					L62.2-53.7c0-0.1,0.1-0.1,0.1-0.2C62.2-53.8,62.2-53.7,62.2-53.7z M62.2-53.7L62.2-53.7c0-0.1,0.1-0.1,0.1-0.2
					C62.2-53.8,62.2-53.7,62.2-53.7z M62.2-53.7L62.2-53.7c0-0.1,0.1-0.1,0.1-0.2C62.2-53.8,62.2-53.7,62.2-53.7z M62.2-53.7
					L62.2-53.7c0-0.1,0.1-0.1,0.1-0.2C62.2-53.8,62.2-53.7,62.2-53.7z M62.2-53.7L62.2-53.7c0-0.1,0.1-0.1,0.1-0.2
					C62.2-53.8,62.2-53.7,62.2-53.7z M62.2-53.7L62.2-53.7c0-0.1,0.1-0.1,0.1-0.2C62.2-53.8,62.2-53.7,62.2-53.7z M62.2-53.7
					L62.2-53.7c0-0.1,0.1-0.1,0.1-0.2C62.2-53.8,62.2-53.7,62.2-53.7z M62.2-53.7L62.2-53.7c0-0.1,0.1-0.1,0.1-0.2
					C62.2-53.8,62.2-53.7,62.2-53.7z M62.2-53.7L62.2-53.7c0-0.1,0.1-0.1,0.1-0.2C62.2-53.8,62.2-53.7,62.2-53.7z M62.2-53.7
					L62.2-53.7c0-0.1,0.1-0.1,0.1-0.2C62.2-53.8,62.2-53.7,62.2-53.7z M62.2-53.7L62.2-53.7c0-0.1,0.1-0.1,0.1-0.2
					C62.2-53.8,62.2-53.7,62.2-53.7z M62.2-53.7L62.2-53.7c0-0.1,0.1-0.1,0.1-0.2C62.2-53.8,62.2-53.7,62.2-53.7z M62.2-53.7
					L62.2-53.7c0-0.1,0.1-0.1,0.1-0.2C62.2-53.8,62.2-53.7,62.2-53.7z M62.2-53.7L62.2-53.7c0-0.1,0.1-0.1,0.1-0.2
					C62.2-53.8,62.2-53.7,62.2-53.7z M62.2-53.7L62.2-53.7c0-0.1,0.1-0.1,0.1-0.2C62.2-53.8,62.2-53.7,62.2-53.7z M62.2-53.7
					L62.2-53.7c0-0.1,0.1-0.1,0.1-0.2C62.2-53.8,62.2-53.7,62.2-53.7z M62.2-53.7L62.2-53.7c0-0.1,0.1-0.1,0.1-0.2
					C62.2-53.8,62.2-53.7,62.2-53.7z M62.2-53.7L62.2-53.7c0-0.1,0.1-0.1,0.1-0.2C62.2-53.8,62.2-53.7,62.2-53.7z M62.2-53.7
					L62.2-53.7c0-0.1,0.1-0.1,0.1-0.2C62.2-53.8,62.2-53.7,62.2-53.7z M62.2-53.7L62.2-53.7c0-0.1,0.1-0.1,0.1-0.2
					C62.2-53.8,62.2-53.7,62.2-53.7z M62.2-53.7L62.2-53.7c0-0.1,0.1-0.1,0.1-0.2C62.2-53.8,62.2-53.7,62.2-53.7z M62.2-53.7
					L62.2-53.7c0-0.1,0.1-0.1,0.1-0.2C62.2-53.8,62.2-53.7,62.2-53.7z M62.2-53.7L62.2-53.7c0-0.1,0.1-0.1,0.1-0.2
					C62.2-53.8,62.2-53.7,62.2-53.7z M62.2-53.7L62.2-53.7c0-0.1,0.1-0.1,0.1-0.2C62.2-53.8,62.2-53.7,62.2-53.7z M62.2-53.7
					L62.2-53.7c0-0.1,0.1-0.1,0.1-0.2C62.2-53.8,62.2-53.7,62.2-53.7z M62.2-53.7L62.2-53.7c0-0.1,0.1-0.1,0.1-0.2
					C62.2-53.8,62.2-53.7,62.2-53.7z M62.2-53.7L62.2-53.7c0-0.1,0.1-0.1,0.1-0.2C62.2-53.8,62.2-53.7,62.2-53.7z M62.2-53.7
					L62.2-53.7c0-0.1,0.1-0.1,0.1-0.2C62.2-53.8,62.2-53.7,62.2-53.7z M62.2-53.7L62.2-53.7c0-0.1,0.1-0.1,0.1-0.2
					C62.2-53.8,62.2-53.7,62.2-53.7z M62.2-53.7L62.2-53.7c0-0.1,0.1-0.1,0.1-0.2C62.2-53.8,62.2-53.7,62.2-53.7z M62.2-53.7
					L62.2-53.7c0-0.1,0.1-0.1,0.1-0.2C62.2-53.8,62.2-53.7,62.2-53.7z M62.2-53.7L62.2-53.7c0-0.1,0.1-0.1,0.1-0.2
					C62.2-53.8,62.2-53.7,62.2-53.7z M62.2-53.7L62.2-53.7c0-0.1,0.1-0.1,0.1-0.2C62.2-53.8,62.2-53.7,62.2-53.7z M62.2-53.7
					L62.2-53.7c0-0.1,0.1-0.1,0.1-0.2C62.2-53.8,62.2-53.7,62.2-53.7z M62.2-53.7L62.2-53.7c0-0.1,0.1-0.1,0.1-0.2
					C62.2-53.8,62.2-53.7,62.2-53.7z M62.2-53.7L62.2-53.7c0-0.1,0.1-0.1,0.1-0.2C62.2-53.8,62.2-53.7,62.2-53.7z M62.2-53.7
					L62.2-53.7c0-0.1,0.1-0.1,0.1-0.2C62.2-53.8,62.2-53.7,62.2-53.7z M62.2-53.7L62.2-53.7c0-0.1,0.1-0.1,0.1-0.2
					C62.2-53.8,62.2-53.7,62.2-53.7z M62.2-53.7L62.2-53.7c0-0.1,0.1-0.1,0.1-0.2C62.2-53.8,62.2-53.7,62.2-53.7z M62.2-53.7
					L62.2-53.7c0-0.1,0.1-0.1,0.1-0.2C62.2-53.8,62.2-53.7,62.2-53.7z M62.2-53.7L62.2-53.7c0-0.1,0.1-0.1,0.1-0.2
					C62.2-53.8,62.2-53.7,62.2-53.7z M62.2-53.7L62.2-53.7c0-0.1,0.1-0.1,0.1-0.2C62.2-53.8,62.2-53.7,62.2-53.7z M62.2-53.7
					L62.2-53.7c0-0.1,0.1-0.1,0.1-0.2C62.2-53.8,62.2-53.7,62.2-53.7z M62.2-53.7L62.2-53.7c0-0.1,0.1-0.1,0.1-0.2
					C62.2-53.8,62.2-53.7,62.2-53.7z M62.2-53.7L62.2-53.7c0-0.1,0.1-0.1,0.1-0.2C62.2-53.8,62.2-53.7,62.2-53.7z M62.2-53.7
					L62.2-53.7c0-0.1,0.1-0.1,0.1-0.2C62.2-53.8,62.2-53.7,62.2-53.7z M62.2-53.7L62.2-53.7c0-0.1,0.1-0.1,0.1-0.2
					C62.2-53.8,62.2-53.7,62.2-53.7z M62.2-53.7L62.2-53.7c0-0.1,0.1-0.1,0.1-0.2C62.2-53.8,62.2-53.7,62.2-53.7z M62.2-53.7
					L62.2-53.7c0-0.1,0.1-0.1,0.1-0.2C62.2-53.8,62.2-53.7,62.2-53.7z M62.2-53.7L62.2-53.7c0-0.1,0.1-0.1,0.1-0.2
					C62.2-53.8,62.2-53.7,62.2-53.7z M62.2-53.7L62.2-53.7c0-0.1,0.1-0.1,0.1-0.2C62.2-53.8,62.2-53.7,62.2-53.7z M62.2-53.7
					L62.2-53.7c0-0.1,0.1-0.1,0.1-0.2C62.2-53.8,62.2-53.7,62.2-53.7z M62.2-53.7L62.2-53.7c0-0.1,0.1-0.1,0.1-0.2
					C62.2-53.8,62.2-53.7,62.2-53.7z M62.2-53.7L62.2-53.7c0-0.1,0.1-0.1,0.1-0.2C62.2-53.8,62.2-53.7,62.2-53.7z M62.2-53.7
					L62.2-53.7c0-0.1,0.1-0.1,0.1-0.2C62.2-53.8,62.2-53.7,62.2-53.7z M62.2-53.7L62.2-53.7c0-0.1,0.1-0.1,0.1-0.2
					C62.2-53.8,62.2-53.7,62.2-53.7z M62.2-53.7L62.2-53.7c0-0.1,0.1-0.1,0.1-0.2C62.2-53.8,62.2-53.7,62.2-53.7z M62.2-53.7
					L62.2-53.7c0-0.1,0.1-0.1,0.1-0.2C62.2-53.8,62.2-53.7,62.2-53.7z M62.2-53.7L62.2-53.7c0-0.1,0.1-0.1,0.1-0.2
					C62.2-53.8,62.2-53.7,62.2-53.7z M62.2-53.7L62.2-53.7c0-0.1,0.1-0.1,0.1-0.2C62.2-53.8,62.2-53.7,62.2-53.7z M62.2-53.7
					L62.2-53.7c0-0.1,0.1-0.1,0.1-0.2C62.2-53.8,62.2-53.7,62.2-53.7z M62.2-53.7L62.2-53.7c0-0.1,0.1-0.1,0.1-0.2
					C62.2-53.8,62.2-53.7,62.2-53.7z M62.2-53.7L62.2-53.7c0-0.1,0.1-0.1,0.1-0.2C62.2-53.8,62.2-53.7,62.2-53.7z M62.2-53.7
					L62.2-53.7c0-0.1,0.1-0.1,0.1-0.2C62.2-53.8,62.2-53.7,62.2-53.7z M62.2-53.7L62.2-53.7c0-0.1,0.1-0.1,0.1-0.2
					C62.2-53.8,62.2-53.7,62.2-53.7z M62.2-53.7L62.2-53.7c0-0.1,0.1-0.1,0.1-0.2C62.2-53.8,62.2-53.7,62.2-53.7z M62.2-53.7
					L62.2-53.7c0-0.1,0.1-0.1,0.1-0.2C62.2-53.8,62.2-53.7,62.2-53.7z M62.2-53.7L62.2-53.7c0-0.1,0.1-0.1,0.1-0.2
					C62.2-53.8,62.2-53.7,62.2-53.7z M62.2-53.7L62.2-53.7c0-0.1,0.1-0.1,0.1-0.2C62.2-53.8,62.2-53.7,62.2-53.7z M62.2-53.7
					L62.2-53.7c0-0.1,0.1-0.1,0.1-0.2C62.2-53.8,62.2-53.7,62.2-53.7z M62.2-53.7L62.2-53.7c0-0.1,0.1-0.1,0.1-0.2
					C62.2-53.8,62.2-53.7,62.2-53.7z M62.2-53.7L62.2-53.7c0-0.1,0.1-0.1,0.1-0.2C62.2-53.8,62.2-53.7,62.2-53.7z M62.2-53.7
					L62.2-53.7c0-0.1,0.1-0.1,0.1-0.2C62.2-53.8,62.2-53.7,62.2-53.7z M62.2-53.7L62.2-53.7c0-0.1,0.1-0.1,0.1-0.2
					C62.2-53.8,62.2-53.7,62.2-53.7z M62.2-53.7L62.2-53.7c0-0.1,0.1-0.1,0.1-0.2C62.2-53.8,62.2-53.7,62.2-53.7z M62.2-53.7
					L62.2-53.7c0-0.1,0.1-0.1,0.1-0.2C62.2-53.8,62.2-53.7,62.2-53.7z M62.2-53.7L62.2-53.7c0-0.1,0.1-0.1,0.1-0.2
					C62.2-53.8,62.2-53.7,62.2-53.7z M62.2-53.7L62.2-53.7c0-0.1,0.1-0.1,0.1-0.2C62.2-53.8,62.2-53.7,62.2-53.7z M62.2-53.7
					L62.2-53.7c0-0.1,0.1-0.1,0.1-0.2C62.2-53.8,62.2-53.7,62.2-53.7z M62.2-53.7L62.2-53.7c0-0.1,0.1-0.1,0.1-0.2
					C62.2-53.8,62.2-53.7,62.2-53.7z M62.2-53.7L62.2-53.7c0-0.1,0.1-0.1,0.1-0.2C62.2-53.8,62.2-53.7,62.2-53.7z M62.2-53.7
					L62.2-53.7c0-0.1,0.1-0.1,0.1-0.2C62.2-53.8,62.2-53.7,62.2-53.7z M62.2-53.7L62.2-53.7c0-0.1,0.1-0.1,0.1-0.2
					C62.2-53.8,62.2-53.7,62.2-53.7z"/>
				<path class="st0" d="M76.1-51.3L76.1-51.3c-0.1,0-0.2,0-0.3-0.1c-0.2,0-0.4-0.1-0.6-0.1c-0.1,0-0.2,0-0.3,0
					c0.6,4.8-1.5,10.1-6.3,10.1c-5.4-0.1-7.8-6.8-6.5-11.8c0-0.1,0-0.2,0.1-0.2c0-0.1,0-0.2,0.1-0.2h0c0-0.1,0-0.1,0.1-0.2
					c0-0.1,0-0.2,0.1-0.2c0.1-0.2,0.1-0.3,0.2-0.5c0-0.1,0.1-0.2,0.1-0.2c0-0.1,0.1-0.2,0.1-0.2c1-2.1,2.9-3.6,5.7-3.6
					c3.1,0,5.2,2.3,6,5.3c0.1,0,0.2,0,0.3,0c0.2,0,0.4,0.1,0.6,0.1c0.1,0,0.2,0,0.3,0.1c-1-3.2-3.4-5.8-7.2-5.8
					c-3.1,0-5.3,1.6-6.6,3.8c-0.1,0.1-0.1,0.2-0.1,0.2c0,0.1-0.1,0.2-0.1,0.2v0c-0.2,0.3-0.3,0.6-0.4,0.9c0,0.1-0.1,0.2-0.1,0.2
					c0,0.1-0.1,0.2-0.1,0.3C59.5-48,61.9-41.1,68.6-41C74.2-41,76.6-46.4,76.1-51.3z M65.4-42c0.2,0.1,0.4,0.2,0.6,0.2c0,0,0,0,0,0
					C65.8-41.8,65.6-41.9,65.4-42z"/>
			</g>
			<g>
				<path class="st0" d="M94.4-48.1L94.4-48.1c-0.3-0.1-0.5-0.1-0.8-0.2C93.9-48.2,94.2-48.2,94.4-48.1c0.1,0,0.2,0.1,0.3,0.1
					C94.6-48,94.5-48.1,94.4-48.1z"/>
				<path class="st1" d="M93-48.4L93-48.4c0.1,0,0.2,0.1,0.3,0.1C93.2-48.4,93.1-48.4,93-48.4z M94.4-48.1L94.4-48.1
					c0.1,0,0.2,0.1,0.3,0.1C94.6-48,94.5-48.1,94.4-48.1z M87.6-50.3v0.6h0L87.6-50.3L87.6-50.3z"/>
				<path class="st0" d="M97.7-58.8v10.5c-0.1,0-0.3-0.1-0.4-0.1v-10.4H97.7z"/>
				<path class="st0" d="M97.7-46.7v5.6h-0.4l-3.7-6.7c0.1,0,0.2,0.1,0.3,0.1c0.3,0.1,0.5,0.1,0.8,0.2c0.1,0,0.2,0,0.3,0.1l2.2,4
					v-3.4C97.5-46.8,97.6-46.8,97.7-46.7z"/>
				<path class="st0" d="M94.1-49.2c-0.1,0-0.2-0.1-0.4-0.1c-0.2-0.1-0.5-0.1-0.7-0.2c-0.1,0-0.2-0.1-0.3-0.1L88-58v17h-0.4v-8.5h0
					v-0.6h0v-8.5h1.2L94.1-49.2z"/>
			</g>
		</g>
		<g>
			<rect x="87.6" y="-50.3" class="st0" width="0" height="0.6"/>
			<path class="st2" d="M87.6-50.3v0.6h0L87.6-50.3L87.6-50.3z M62.2-53.7L62.2-53.7c0-0.1,0.1-0.1,0.1-0.2
				C62.2-53.8,62.2-53.7,62.2-53.7z M-17.7-52.6c0,0.2-0.1,0.5-0.1,0.7C-17.8-52.1-17.7-52.4-17.7-52.6L-17.7-52.6z"/>
			<path class="st2" d="M87.6-50.3v0.6c-0.1,0-0.2,0-0.2,0c-3.6-0.8-7.3-1.4-11.1-2.1c-0.1,0-0.2,0-0.3,0c-0.1,0-0.2,0-0.3,0
				c-0.2,0-0.4-0.1-0.6-0.1c-0.1,0-0.2,0-0.3,0c-0.1,0-0.2,0-0.3,0c-3.9-0.6-8-1.2-12.1-1.6c-0.1,0-0.2,0-0.3,0c0-0.1,0-0.1,0.1-0.2
				c0-0.1,0-0.2,0.1-0.2c0.1-0.2,0.1-0.3,0.2-0.5c0.1,0,0.2,0,0.3,0c3.9,0.5,7.8,1,11.6,1.7c0.1,0,0.2,0,0.3,0c0.1,0,0.2,0,0.3,0
				c0.2,0,0.4,0.1,0.6,0.1c0.1,0,0.2,0,0.3,0c0.1,0,0.2,0,0.3,0c3.8,0.7,7.5,1.4,11.2,2.2C87.4-50.3,87.5-50.3,87.6-50.3z"/>
			<path class="st2" d="M61.6-54.7c-0.2,0.3-0.3,0.6-0.4,0.9c-0.1,0-0.2,0-0.3,0c-3.6-0.4-7.3-0.7-11.1-1c-0.1,0-0.2,0-0.3,0
				c-0.1,0-0.2,0-0.3,0c-0.2,0-0.4,0-0.6,0c-0.1,0-0.2,0-0.3,0c-0.1,0-0.2,0-0.3,0c-5.3-0.3-10.7-0.6-16.2-0.6v-1
				c5.6,0,11.1,0.3,16.6,0.7c0.1,0,0.2,0,0.3,0c0.1,0,0.2,0,0.3,0c0.2,0,0.4,0,0.6,0c0.1,0,0.2,0,0.3,0c0.1,0,0.2,0,0.3,0
				c3.7,0.3,7.4,0.6,11,1C61.4-54.7,61.5-54.7,61.6-54.7z"/>
			<path class="st2" d="M30-56.6v1c-0.6,0-1.1,0-1.7,0c-3.1,0-6.3,0-9.5,0.1c-0.1,0-0.2,0-0.3,0c-0.1,0-0.2,0-0.3,0
				c-0.2,0-0.4,0-0.6,0c-0.1,0-0.2,0-0.3,0c-0.1,0-0.2,0-0.3,0c-2.2,0.1-4.4,0.2-6.6,0.3V-56c2-0.1,4.1-0.2,6.1-0.3l0.3,0
				c0.1,0,0.2,0,0.3,0h0c0.2,0,0.3,0,0.5,0c0.1,0,0.2,0,0.3,0c0.1,0,0.2,0,0.3,0c3.6-0.1,7.2-0.2,10.8-0.2H30z"/>
			<path class="st2" d="M8.5-55.8v0.9c-3.8,0.2-7.6,0.6-11.4,1c-0.1,0-0.2,0-0.3,0c-0.1,0-0.2,0-0.3,0c-0.2,0-0.3,0-0.5,0.1
				c-0.1,0-0.2,0-0.3,0c-0.1,0-0.2,0-0.3,0v0c-4,0.5-8,1-12,1.6c-0.1,0-0.2,0-0.3,0.1c0-0.2,0.1-0.5,0.1-0.7c0.1,0,0.2,0,0.3,0
				c3.8-0.7,7.7-1.2,11.6-1.7c0.1,0,0.2,0,0.3,0c0.1,0,0.2,0,0.3,0c0.2,0,0.3,0,0.5-0.1c0.1,0,0.2,0,0.3,0c0.1,0,0.2,0,0.3,0
				C0.7-55.2,4.6-55.5,8.5-55.8z"/>
			<path class="st2" d="M-17.7-52.6c0,0.2-0.1,0.5-0.1,0.7c-0.1,0-0.2,0-0.3,0c-3.7,0.6-7.3,1.3-10.9,2.1c-0.1,0-0.2,0-0.3,0.1v-0.6
				c0.1,0,0.2,0,0.3-0.1c3.6-0.8,7.3-1.6,11.1-2.2C-17.9-52.6-17.8-52.6-17.7-52.6z"/>
			<path class="st2" d="M-30.3-50v0.6c-0.5,0.1-1,0.2-1.5,0.3c-0.4,0.1-0.7,0.2-1.1,0.3c-1.7,0.4-3.5,0.8-5.2,1.3
				c-0.1,0-0.2,0-0.3,0.1c-0.1,0-0.2,0-0.3,0.1c-0.2,0-0.3,0.1-0.5,0.1c-0.1,0-0.2,0-0.3,0.1c-0.1,0-0.2,0-0.2,0.1
				c-6.8,1.8-13.4,4-19.7,6.4c6.2-2.6,12.8-4.9,19.7-6.9c0.1,0,0.2-0.1,0.2-0.1c0.1,0,0.2-0.1,0.3-0.1c0.2,0,0.3-0.1,0.5-0.2
				c0.1,0,0.2,0,0.3-0.1c0.1,0,0.2,0,0.3-0.1c1-0.3,2-0.5,3-0.8c0.3-0.1,0.7-0.2,1-0.3c0.6-0.1,1.2-0.3,1.7-0.4
				c0.4-0.1,0.7-0.2,1.1-0.3c0.2-0.1,0.5-0.1,0.8-0.2C-30.5-50-30.4-50-30.3-50z"/>
			<path class="st0" d="M-17.7-52.6c-0.1,0.2-0.1,0.5-0.2,0.7C-17.8-52.1-17.7-52.4-17.7-52.6L-17.7-52.6z"/>
			<path class="st2" d="M117.7-40.7c-5.8-2.4-12.4-4.5-19.7-6.5c-0.1,0-0.2,0-0.3-0.1c-0.1,0-0.3-0.1-0.4-0.1c-0.1,0-0.2,0-0.3-0.1
				c-0.7-0.2-1.3-0.3-2-0.5c-0.1,0-0.2,0-0.3-0.1c-0.1,0-0.2-0.1-0.3-0.1h0c-0.2-0.1-0.5-0.1-0.7-0.2c-0.1,0-0.2,0-0.3-0.1
				c-0.1,0-0.2,0-0.3-0.1h0c-1.6-0.4-3.1-0.7-4.7-1.1c-0.1,0-0.2,0-0.3-0.1v-0.6c0.1,0,0.2,0,0.3,0.1c1.5,0.3,2.9,0.7,4.4,1.1
				c0.1,0,0.2,0.1,0.3,0.1c0.1,0,0.2,0.1,0.3,0.1c0.2,0,0.5,0.1,0.7,0.2h0c0.1,0,0.2,0.1,0.3,0.1c0.1,0,0.2,0.1,0.3,0.1
				c0.8,0.2,1.5,0.4,2.3,0.6c0.1,0,0.2,0,0.3,0.1c0.1,0,0.3,0.1,0.4,0.1c0.1,0,0.2,0,0.3,0.1C104.9-45.6,111.5-43.3,117.7-40.7z"/>
			<path class="st0" d="M62.3-53.9c0,0.1,0,0.2-0.1,0.2h0C62.2-53.7,62.2-53.8,62.3-53.9z"/>
		</g>
	</g>
	
		<image style="overflow:visible;" width="417" height="210" xlink:href="Horizon H logo-01.png"  transform="matrix(8.721035e-02 0 0 8.721035e-02 -54.3372 -82.3355)">
	</image>
	<g>
		<path class="st2" d="M0.5,13.3c0,0,21.8-5.5,29.6-7V5.7C30.1,5.7,12,9.3,0.5,13.3z"/>
		<g>
			<g>
				<polygon class="st0" points="11.7,11 11.7,16.3 10.8,16.3 10.8,11.2 				"/>
				<path class="st0" d="M15.2,8.6c-0.5,0.1-1,0.3-1.5,0.4h-2v0.5c-0.1,0-0.9,0.2-0.9,0.3V0.3h0.9v8.3H15.2z"/>
				<rect x="19" y="0.3" class="st0" width="0.9" height="16"/>
			</g>
		</g>
		<g class="st3">
			<path class="st4" d="M30.3,5.9c0,0.2-0.1,0.4-0.1,0.7c-3.3,0.6-6.6,1.2-9.9,1.9c-0.1,0,0,0-0.2,0V7.9c0.1,0,0.2,0,0.2,0
				C23.5,7.1,26.8,6.5,30.3,5.9z"/>
		</g>
	</g>
</g>
<g id="Layer_2">
</g>
</svg>
