<?xml version="1.0" encoding="utf-8"?>
<!-- Generator: Adobe Illustrator 27.7.0, SVG Export Plug-In . SVG Version: 6.00 Build 0)  -->
<svg version="1.1" id="Layer_1" xmlns="http://www.w3.org/2000/svg" xmlns:xlink="http://www.w3.org/1999/xlink" x="0px" y="0px"
	 viewBox="0 0 177.1 18.3" style="enable-background:new 0 0 177.1 18.3;" xml:space="preserve">
<style type="text/css">
	.st0{fill:#4A484B;}
	.st1{fill:#FFFFFF;}
	.st2{fill:#96C93C;}
</style>
<g>
	<g>
		<g>
			<path class="st0" d="M20.8,12.1c0.1,0,0.2,0,0.2-0.1v5.9h-1v-5.6c0.1,0,0.2-0.1,0.3-0.1C20.4,12.2,20.6,12.1,20.8,12.1"/>
			<path class="st0" d="M20.8,10.5c-0.2,0-0.3,0.1-0.5,0.1c-0.1,0-0.2,0-0.3,0.1V0.2h1v9.2h3.9c-0.5,0.1-1.1,0.3-1.6,0.4H21v0.6
				C20.9,10.5,20.8,10.5,20.8,10.5"/>
			<rect x="29.1" y="0.2" class="st0" width="1" height="17.7"/>
		</g>
		<g>
			<path class="st1" d="M41.7,6.4c0,0.2-0.1,0.5-0.1,0.7C41.6,6.9,41.7,6.6,41.7,6.4L41.7,6.4z"/>
			<path class="st0" d="M55.7,5.7c0.2,0,0.3,0,0.5-0.1c0.1,0,0.2,0,0.3,0c1.7,5.3-0.5,12.4-7,12.4c-5.8,0-8.5-5.5-7.9-10.3
				c0-0.1,0-0.2,0-0.3c0-0.1,0-0.2,0-0.3c0-0.2,0.1-0.5,0.2-0.7h0c0-0.1,0-0.2,0.1-0.3c0-0.1,0-0.2,0.1-0.3c1-3.2,3.4-5.8,7.4-5.8
				c3,0,5.1,1.6,6.4,3.8c-0.1,0-0.2,0-0.3,0c-0.2,0-0.3,0-0.4,0c-0.1,0-0.2,0-0.3,0c-1.1-2.1-2.9-3.6-5.4-3.6
				c-3.5,0-5.6,2.3-6.4,5.3c0,0.1,0,0.2-0.1,0.3c0,0.1,0,0.2-0.1,0.3c0,0.2-0.1,0.5-0.1,0.7c0,0.1,0,0.2,0,0.3c0,0.1,0,0.2,0,0.3
				c-0.4,4.7,2,10.1,6.8,10.2c5.5,0.1,7.4-6.8,6-11.9C55.5,5.7,55.6,5.7,55.7,5.7"/>
		</g>
		<g>
			<path class="st0" d="M78.8,17.9h-1.1l-4.6-7.6h-3.7v7.6h-1V0.2h4c2.1,0,3.7,0.8,4.7,1.9c-0.1,0-0.2,0-0.3,0c-0.1,0-0.3,0-0.4,0
				c-0.1,0-0.2,0-0.3,0c-0.8-0.9-2-1.6-3.6-1.5l-3,0v1.9c-0.1,0-0.2,0-0.3,0c0.1,0,0.2,0,0.3,0v7.3l3.5,0c3.3,0,4.6-3.2,4-5.8h0.3
				c0.2,0,0.4,0,0.6,0h0.3c0.7,2.5-0.6,5.5-3.9,6.1L78.8,17.9z"/>
			<path class="st0" d="M69.4,2.6L69.4,2.6c-0.1,0-0.2,0-0.3,0C69.3,2.6,69.4,2.6,69.4,2.6z"/>
		</g>
		<g>
			<rect x="89.9" y="0.2" class="st0" width="1" height="17.7"/>
		</g>
		<g>
			<path class="st0" d="M110.7,17.5v0.4h-8.8v-0.4l5.8-12.9c0.1,0,0.2,0,0.3,0c0.2,0,0.4,0,0.6,0c0.1,0,0.2,0,0.3,0l-5.7,12.8H110.7
				z"/>
			<path class="st0" d="M110.6,0.2v0.4l-0.9,2c-0.1,0-0.2,0-0.3,0h0c-0.2,0-0.4,0-0.6,0c-0.1,0-0.2,0-0.3,0l0.9-2h-7.9V0.2H110.6z"
				/>
		</g>
		<g>
			<path class="st0" d="M120.9,8.5c0-0.2,0-0.5,0-0.7C120.9,8,120.9,8.3,120.9,8.5c0,0.5,0,1,0.1,1.5C120.9,9.5,120.9,9,120.9,8.5z"
				/>
			<path class="st1" d="M121.6,5.3L121.6,5.3c0-0.1,0.1-0.1,0.1-0.2C121.6,5.2,121.6,5.3,121.6,5.3z M121.6,5.3L121.6,5.3
				c0-0.1,0.1-0.1,0.1-0.2C121.6,5.2,121.6,5.3,121.6,5.3z M121.6,5.3L121.6,5.3c0-0.1,0.1-0.1,0.1-0.2
				C121.6,5.2,121.6,5.3,121.6,5.3z M121.6,5.3L121.6,5.3c0-0.1,0.1-0.1,0.1-0.2C121.6,5.2,121.6,5.3,121.6,5.3z M121.6,5.3
				L121.6,5.3c0-0.1,0.1-0.1,0.1-0.2C121.6,5.2,121.6,5.3,121.6,5.3z M121.6,5.3L121.6,5.3c0-0.1,0.1-0.1,0.1-0.2
				C121.6,5.2,121.6,5.3,121.6,5.3z M121.6,5.3L121.6,5.3c0-0.1,0.1-0.1,0.1-0.2C121.6,5.2,121.6,5.3,121.6,5.3z M121.6,5.3
				L121.6,5.3c0-0.1,0.1-0.1,0.1-0.2C121.6,5.2,121.6,5.3,121.6,5.3z M121.6,5.3L121.6,5.3c0-0.1,0.1-0.1,0.1-0.2
				C121.6,5.2,121.6,5.3,121.6,5.3z M121.6,5.3L121.6,5.3c0-0.1,0.1-0.1,0.1-0.2C121.6,5.2,121.6,5.3,121.6,5.3z M121.6,5.3
				L121.6,5.3c0-0.1,0.1-0.1,0.1-0.2C121.6,5.2,121.6,5.3,121.6,5.3z M121.6,5.3L121.6,5.3c0-0.1,0.1-0.1,0.1-0.2
				C121.6,5.2,121.6,5.3,121.6,5.3z M121.6,5.3L121.6,5.3c0-0.1,0.1-0.1,0.1-0.2C121.6,5.2,121.6,5.3,121.6,5.3z M121.6,5.3
				L121.6,5.3c0-0.1,0.1-0.1,0.1-0.2C121.6,5.2,121.6,5.3,121.6,5.3z M121.6,5.3L121.6,5.3c0-0.1,0.1-0.1,0.1-0.2
				C121.6,5.2,121.6,5.3,121.6,5.3z M121.6,5.3L121.6,5.3c0-0.1,0.1-0.1,0.1-0.2C121.6,5.2,121.6,5.3,121.6,5.3z M121.6,5.3
				L121.6,5.3c0-0.1,0.1-0.1,0.1-0.2C121.6,5.2,121.6,5.3,121.6,5.3z M121.6,5.3L121.6,5.3c0-0.1,0.1-0.1,0.1-0.2
				C121.6,5.2,121.6,5.3,121.6,5.3z M121.6,5.3L121.6,5.3c0-0.1,0.1-0.1,0.1-0.2C121.6,5.2,121.6,5.3,121.6,5.3z M121.6,5.3
				L121.6,5.3c0-0.1,0.1-0.1,0.1-0.2C121.6,5.2,121.6,5.3,121.6,5.3z M121.6,5.3L121.6,5.3c0-0.1,0.1-0.1,0.1-0.2
				C121.6,5.2,121.6,5.3,121.6,5.3z M121.6,5.3L121.6,5.3c0-0.1,0.1-0.1,0.1-0.2C121.6,5.2,121.6,5.3,121.6,5.3z M121.6,5.3
				L121.6,5.3c0-0.1,0.1-0.1,0.1-0.2C121.6,5.2,121.6,5.3,121.6,5.3z M121.6,5.3L121.6,5.3c0-0.1,0.1-0.1,0.1-0.2
				C121.6,5.2,121.6,5.3,121.6,5.3z M121.6,5.3L121.6,5.3c0-0.1,0.1-0.1,0.1-0.2C121.6,5.2,121.6,5.3,121.6,5.3z M121.6,5.3
				L121.6,5.3c0-0.1,0.1-0.1,0.1-0.2C121.6,5.2,121.6,5.3,121.6,5.3z M121.6,5.3L121.6,5.3c0-0.1,0.1-0.1,0.1-0.2
				C121.6,5.2,121.6,5.3,121.6,5.3z M121.6,5.3L121.6,5.3c0-0.1,0.1-0.1,0.1-0.2C121.6,5.2,121.6,5.3,121.6,5.3z M121.6,5.3
				L121.6,5.3c0-0.1,0.1-0.1,0.1-0.2C121.6,5.2,121.6,5.3,121.6,5.3z M121.6,5.3L121.6,5.3c0-0.1,0.1-0.1,0.1-0.2
				C121.6,5.2,121.6,5.3,121.6,5.3z M121.6,5.3L121.6,5.3c0-0.1,0.1-0.1,0.1-0.2C121.6,5.2,121.6,5.3,121.6,5.3z M121.6,5.3
				L121.6,5.3c0-0.1,0.1-0.1,0.1-0.2C121.6,5.2,121.6,5.3,121.6,5.3z M121.6,5.3L121.6,5.3c0-0.1,0.1-0.1,0.1-0.2
				C121.6,5.2,121.6,5.3,121.6,5.3z M121.6,5.3L121.6,5.3c0-0.1,0.1-0.1,0.1-0.2C121.6,5.2,121.6,5.3,121.6,5.3z M121.6,5.3
				L121.6,5.3c0-0.1,0.1-0.1,0.1-0.2C121.6,5.2,121.6,5.3,121.6,5.3z M121.6,5.3L121.6,5.3c0-0.1,0.1-0.1,0.1-0.2
				C121.6,5.2,121.6,5.3,121.6,5.3z M121.6,5.3L121.6,5.3c0-0.1,0.1-0.1,0.1-0.2C121.6,5.2,121.6,5.3,121.6,5.3z M121.6,5.3
				L121.6,5.3c0-0.1,0.1-0.1,0.1-0.2C121.6,5.2,121.6,5.3,121.6,5.3z M121.6,5.3L121.6,5.3c0-0.1,0.1-0.1,0.1-0.2
				C121.6,5.2,121.6,5.3,121.6,5.3z M121.6,5.3L121.6,5.3c0-0.1,0.1-0.1,0.1-0.2C121.6,5.2,121.6,5.3,121.6,5.3z M121.6,5.3
				L121.6,5.3c0-0.1,0.1-0.1,0.1-0.2C121.6,5.2,121.6,5.3,121.6,5.3z M121.6,5.3L121.6,5.3c0-0.1,0.1-0.1,0.1-0.2
				C121.6,5.2,121.6,5.3,121.6,5.3z M121.6,5.3L121.6,5.3c0-0.1,0.1-0.1,0.1-0.2C121.6,5.2,121.6,5.3,121.6,5.3z M121.6,5.3
				L121.6,5.3c0-0.1,0.1-0.1,0.1-0.2C121.6,5.2,121.6,5.3,121.6,5.3z M121.6,5.3L121.6,5.3c0-0.1,0.1-0.1,0.1-0.2
				C121.6,5.2,121.6,5.3,121.6,5.3z M121.6,5.3L121.6,5.3c0-0.1,0.1-0.1,0.1-0.2C121.6,5.2,121.6,5.3,121.6,5.3z M121.6,5.3
				L121.6,5.3c0-0.1,0.1-0.1,0.1-0.2C121.6,5.2,121.6,5.3,121.6,5.3z M121.6,5.3L121.6,5.3c0-0.1,0.1-0.1,0.1-0.2
				C121.6,5.2,121.6,5.3,121.6,5.3z M121.6,5.3L121.6,5.3c0-0.1,0.1-0.1,0.1-0.2C121.6,5.2,121.6,5.3,121.6,5.3z M121.6,5.3
				L121.6,5.3c0-0.1,0.1-0.1,0.1-0.2C121.6,5.2,121.6,5.3,121.6,5.3z M121.6,5.3L121.6,5.3c0-0.1,0.1-0.1,0.1-0.2
				C121.6,5.2,121.6,5.3,121.6,5.3z M121.6,5.3L121.6,5.3c0-0.1,0.1-0.1,0.1-0.2C121.6,5.2,121.6,5.3,121.6,5.3z M121.6,5.3
				L121.6,5.3c0-0.1,0.1-0.1,0.1-0.2C121.6,5.2,121.6,5.3,121.6,5.3z M121.6,5.3L121.6,5.3c0-0.1,0.1-0.1,0.1-0.2
				C121.6,5.2,121.6,5.3,121.6,5.3z M121.6,5.3L121.6,5.3c0-0.1,0.1-0.1,0.1-0.2C121.6,5.2,121.6,5.3,121.6,5.3z M121.6,5.3
				L121.6,5.3c0-0.1,0.1-0.1,0.1-0.2C121.6,5.2,121.6,5.3,121.6,5.3z M121.6,5.3L121.6,5.3c0-0.1,0.1-0.1,0.1-0.2
				C121.6,5.2,121.6,5.3,121.6,5.3z M121.6,5.3L121.6,5.3c0-0.1,0.1-0.1,0.1-0.2C121.6,5.2,121.6,5.3,121.6,5.3z M121.6,5.3
				L121.6,5.3c0-0.1,0.1-0.1,0.1-0.2C121.6,5.2,121.6,5.3,121.6,5.3z M121.6,5.3L121.6,5.3c0-0.1,0.1-0.1,0.1-0.2
				C121.6,5.2,121.6,5.3,121.6,5.3z M121.6,5.3L121.6,5.3c0-0.1,0.1-0.1,0.1-0.2C121.6,5.2,121.6,5.3,121.6,5.3z M121.6,5.3
				L121.6,5.3c0-0.1,0.1-0.1,0.1-0.2C121.6,5.2,121.6,5.3,121.6,5.3z M121.6,5.3L121.6,5.3c0-0.1,0.1-0.1,0.1-0.2
				C121.6,5.2,121.6,5.3,121.6,5.3z M121.6,5.3L121.6,5.3c0-0.1,0.1-0.1,0.1-0.2C121.6,5.2,121.6,5.3,121.6,5.3z M121.6,5.3
				L121.6,5.3c0-0.1,0.1-0.1,0.1-0.2C121.6,5.2,121.6,5.3,121.6,5.3z M121.6,5.3L121.6,5.3c0-0.1,0.1-0.1,0.1-0.2
				C121.6,5.2,121.6,5.3,121.6,5.3z M121.6,5.3L121.6,5.3c0-0.1,0.1-0.1,0.1-0.2C121.6,5.2,121.6,5.3,121.6,5.3z M121.6,5.3
				L121.6,5.3c0-0.1,0.1-0.1,0.1-0.2C121.6,5.2,121.6,5.3,121.6,5.3z M121.6,5.3L121.6,5.3c0-0.1,0.1-0.1,0.1-0.2
				C121.6,5.2,121.6,5.3,121.6,5.3z M121.6,5.3L121.6,5.3c0-0.1,0.1-0.1,0.1-0.2C121.6,5.2,121.6,5.3,121.6,5.3z M121.6,5.3
				L121.6,5.3c0-0.1,0.1-0.1,0.1-0.2C121.6,5.2,121.6,5.3,121.6,5.3z M121.6,5.3L121.6,5.3c0-0.1,0.1-0.1,0.1-0.2
				C121.6,5.2,121.6,5.3,121.6,5.3z M121.6,5.3L121.6,5.3c0-0.1,0.1-0.1,0.1-0.2C121.6,5.2,121.6,5.3,121.6,5.3z M121.6,5.3
				L121.6,5.3c0-0.1,0.1-0.1,0.1-0.2C121.6,5.2,121.6,5.3,121.6,5.3z M121.6,5.3L121.6,5.3c0-0.1,0.1-0.1,0.1-0.2
				C121.6,5.2,121.6,5.3,121.6,5.3z M121.6,5.3L121.6,5.3c0-0.1,0.1-0.1,0.1-0.2C121.6,5.2,121.6,5.3,121.6,5.3z M121.6,5.3
				L121.6,5.3c0-0.1,0.1-0.1,0.1-0.2C121.6,5.2,121.6,5.3,121.6,5.3z M121.6,5.3L121.6,5.3c0-0.1,0.1-0.1,0.1-0.2
				C121.6,5.2,121.6,5.3,121.6,5.3z M121.6,5.3L121.6,5.3c0-0.1,0.1-0.1,0.1-0.2C121.6,5.2,121.6,5.3,121.6,5.3z M121.6,5.3
				L121.6,5.3c0-0.1,0.1-0.1,0.1-0.2C121.6,5.2,121.6,5.3,121.6,5.3z M121.6,5.3L121.6,5.3c0-0.1,0.1-0.1,0.1-0.2
				C121.6,5.2,121.6,5.3,121.6,5.3z M121.6,5.3L121.6,5.3c0-0.1,0.1-0.1,0.1-0.2C121.6,5.2,121.6,5.3,121.6,5.3z M121.6,5.3
				L121.6,5.3c0-0.1,0.1-0.1,0.1-0.2C121.6,5.2,121.6,5.3,121.6,5.3z M121.6,5.3L121.6,5.3c0-0.1,0.1-0.1,0.1-0.2
				C121.6,5.2,121.6,5.3,121.6,5.3z M121.6,5.3L121.6,5.3c0-0.1,0.1-0.1,0.1-0.2C121.6,5.2,121.6,5.3,121.6,5.3z M121.6,5.3
				L121.6,5.3c0-0.1,0.1-0.1,0.1-0.2C121.6,5.2,121.6,5.3,121.6,5.3z M121.6,5.3L121.6,5.3c0-0.1,0.1-0.1,0.1-0.2
				C121.6,5.2,121.6,5.3,121.6,5.3z M121.6,5.3L121.6,5.3c0-0.1,0.1-0.1,0.1-0.2C121.6,5.2,121.6,5.3,121.6,5.3z M121.6,5.3
				L121.6,5.3c0-0.1,0.1-0.1,0.1-0.2C121.6,5.2,121.6,5.3,121.6,5.3z M121.6,5.3L121.6,5.3c0-0.1,0.1-0.1,0.1-0.2
				C121.6,5.2,121.6,5.3,121.6,5.3z M121.6,5.3L121.6,5.3c0-0.1,0.1-0.1,0.1-0.2C121.6,5.2,121.6,5.3,121.6,5.3z M121.6,5.3
				L121.6,5.3c0-0.1,0.1-0.1,0.1-0.2C121.6,5.2,121.6,5.3,121.6,5.3z M121.6,5.3L121.6,5.3c0-0.1,0.1-0.1,0.1-0.2
				C121.6,5.2,121.6,5.3,121.6,5.3z"/>
			<path class="st0" d="M135.5,7.8L135.5,7.8c-0.1,0-0.2,0-0.3-0.1c-0.2,0-0.4-0.1-0.6-0.1c-0.1,0-0.2,0-0.3,0
				c0.6,4.8-1.5,10.1-6.3,10.1c-5.4-0.1-7.8-6.8-6.5-11.8c0-0.1,0-0.2,0.1-0.2c0-0.1,0-0.2,0.1-0.2h0c0-0.1,0-0.1,0.1-0.2
				c0-0.1,0-0.2,0.1-0.2c0.1-0.2,0.1-0.3,0.2-0.5c0-0.1,0.1-0.2,0.1-0.2c0-0.1,0.1-0.2,0.1-0.2c1-2.1,2.9-3.6,5.7-3.6
				c3.1,0,5.2,2.3,6,5.3c0.1,0,0.2,0,0.3,0c0.2,0,0.4,0.1,0.6,0.1c0.1,0,0.2,0,0.3,0.1c-1-3.2-3.4-5.8-7.2-5.8
				c-3.1,0-5.3,1.6-6.6,3.8c-0.1,0.1-0.1,0.2-0.1,0.2c0,0.1-0.1,0.2-0.1,0.2v0c-0.2,0.3-0.3,0.6-0.4,0.9c0,0.1-0.1,0.2-0.1,0.2
				c0,0.1-0.1,0.2-0.1,0.3c-1.6,5.2,0.9,12.2,7.5,12.2C133.6,18,136,12.6,135.5,7.8z M124.8,17c0.2,0.1,0.4,0.2,0.6,0.2c0,0,0,0,0,0
				C125.2,17.2,125,17.1,124.8,17z"/>
		</g>
		<g>
			<path class="st0" d="M153.8,10.9L153.8,10.9c-0.3-0.1-0.5-0.1-0.8-0.2C153.3,10.8,153.6,10.8,153.8,10.9c0.1,0,0.2,0.1,0.3,0.1
				C154,11,153.9,10.9,153.8,10.9z"/>
			<path class="st1" d="M152.4,10.6L152.4,10.6c0.1,0,0.2,0.1,0.3,0.1C152.6,10.6,152.5,10.6,152.4,10.6z M153.8,10.9L153.8,10.9
				c0.1,0,0.2,0.1,0.3,0.1C154,11,153.9,10.9,153.8,10.9z M147,8.7v0.6h0L147,8.7L147,8.7z"/>
			<path class="st0" d="M157.2,0.3v10.5c-0.1,0-0.3-0.1-0.4-0.1V0.3H157.2z"/>
			<path class="st0" d="M157.1,12.3v5.6h-0.4l-3.7-6.7c0.1,0,0.2,0.1,0.3,0.1c0.3,0.1,0.5,0.1,0.8,0.2c0.1,0,0.2,0,0.3,0.1l2.2,4
				v-3.4C156.9,12.2,157,12.2,157.1,12.3z"/>
			<path class="st0" d="M153.5,9.8c-0.1,0-0.2-0.1-0.4-0.1c-0.2-0.1-0.5-0.1-0.7-0.2c-0.1,0-0.2-0.1-0.3-0.1L147.4,1v17H147V9.4h0
				V8.7h0V0.2h1.2L153.5,9.8z"/>
		</g>
	</g>
	<g>
		<rect x="147" y="8.7" class="st0" width="0" height="0.6"/>
		<path class="st2" d="M147,8.7v0.6h0L147,8.7L147,8.7z M121.6,5.3L121.6,5.3c0-0.1,0.1-0.1,0.1-0.2C121.6,5.2,121.6,5.3,121.6,5.3z
			 M41.7,6.4c0,0.2-0.1,0.5-0.1,0.7C41.6,6.9,41.7,6.6,41.7,6.4L41.7,6.4z"/>
		<path class="st2" d="M147,8.7v0.6c-0.1,0-0.2,0-0.2,0c-3.6-0.8-7.3-1.4-11.1-2.1c-0.1,0-0.2,0-0.3,0c-0.1,0-0.2,0-0.3,0
			c-0.2,0-0.4-0.1-0.6-0.1c-0.1,0-0.2,0-0.3,0c-0.1,0-0.2,0-0.3,0c-3.9-0.6-8-1.2-12.1-1.6c-0.1,0-0.2,0-0.3,0c0-0.1,0-0.1,0.1-0.2
			c0-0.1,0-0.2,0.1-0.2c0.1-0.2,0.1-0.3,0.2-0.5c0.1,0,0.2,0,0.3,0c3.9,0.5,7.8,1,11.6,1.7c0.1,0,0.2,0,0.3,0c0.1,0,0.2,0,0.3,0
			c0.2,0,0.4,0.1,0.6,0.1c0.1,0,0.2,0,0.3,0c0.1,0,0.2,0,0.3,0c3.8,0.7,7.5,1.4,11.2,2.2C146.8,8.7,146.9,8.7,147,8.7z"/>
		<path class="st2" d="M121,4.3c-0.2,0.3-0.3,0.6-0.4,0.9c-0.1,0-0.2,0-0.3,0c-3.6-0.4-7.3-0.7-11.1-1c-0.1,0-0.2,0-0.3,0
			c-0.1,0-0.2,0-0.3,0c-0.2,0-0.4,0-0.6,0c-0.1,0-0.2,0-0.3,0c-0.1,0-0.2,0-0.3,0c-5.3-0.3-10.7-0.6-16.2-0.6v-1
			c5.6,0,11.1,0.3,16.6,0.7c0.1,0,0.2,0,0.3,0c0.1,0,0.2,0,0.3,0c0.2,0,0.4,0,0.6,0c0.1,0,0.2,0,0.3,0c0.1,0,0.2,0,0.3,0
			c3.7,0.3,7.4,0.6,11,1C120.8,4.3,120.9,4.3,121,4.3z"/>
		<path class="st2" d="M89.4,2.4v1c-0.6,0-1.1,0-1.7,0c-3.1,0-6.3,0-9.5,0.1c-0.1,0-0.2,0-0.3,0c-0.1,0-0.2,0-0.3,0
			c-0.2,0-0.4,0-0.6,0c-0.1,0-0.2,0-0.3,0c-0.1,0-0.2,0-0.3,0C74.3,3.7,72.2,3.8,70,4V3c2-0.1,4.1-0.2,6.1-0.3l0.3,0
			c0.1,0,0.2,0,0.3,0h0c0.2,0,0.3,0,0.5,0c0.1,0,0.2,0,0.3,0c0.1,0,0.2,0,0.3,0c3.6-0.1,7.2-0.2,10.8-0.2H89.4z"/>
		<path class="st2" d="M67.9,3.2v0.9c-3.8,0.2-7.6,0.6-11.4,1c-0.1,0-0.2,0-0.3,0c-0.1,0-0.2,0-0.3,0c-0.2,0-0.3,0-0.5,0.1
			c-0.1,0-0.2,0-0.3,0c-0.1,0-0.2,0-0.3,0v0c-4,0.5-8,1-12,1.6c-0.1,0-0.2,0-0.3,0.1c0-0.2,0.1-0.5,0.1-0.7c0.1,0,0.2,0,0.3,0
			c3.8-0.7,7.7-1.2,11.6-1.7c0.1,0,0.2,0,0.3,0c0.1,0,0.2,0,0.3,0c0.2,0,0.3,0,0.5-0.1c0.1,0,0.2,0,0.3,0c0.1,0,0.2,0,0.3,0
			C60.1,3.8,64,3.5,67.9,3.2z"/>
		<path class="st2" d="M41.7,6.4c0,0.2-0.1,0.5-0.1,0.7c-0.1,0-0.2,0-0.3,0C37.6,7.8,34,8.5,30.4,9.3c-0.1,0-0.2,0-0.3,0.1V8.7
			c0.1,0,0.2,0,0.3-0.1c3.6-0.8,7.3-1.6,11.1-2.2C41.5,6.4,41.6,6.4,41.7,6.4z"/>
		<path class="st2" d="M29.1,9v0.6c-0.5,0.1-1,0.2-1.5,0.3c-0.4,0.1-0.8,0.2-1.1,0.3c-1.7,0.4-3.5,0.8-5.2,1.3c-0.1,0-0.2,0-0.3,0.1
			c-0.1,0-0.2,0-0.3,0.1c-0.2,0-0.3,0.1-0.5,0.1c-0.1,0-0.2,0-0.3,0.1c-0.1,0-0.2,0-0.2,0.1C13,13.7,6.4,15.8,0,18.3
			c6.2-2.6,12.8-4.9,19.7-6.9c0.1,0,0.2-0.1,0.2-0.1c0.1,0,0.2-0.1,0.3-0.1c0.2,0,0.3-0.1,0.5-0.2c0.1,0,0.2,0,0.3-0.1
			c0.1,0,0.2,0,0.3-0.1c1-0.3,2-0.5,3-0.8c0.3-0.1,0.7-0.2,1-0.3c0.6-0.1,1.2-0.3,1.7-0.4c0.4-0.1,0.7-0.2,1.1-0.3
			c0.2-0.1,0.5-0.1,0.8-0.2C28.9,9,29,9,29.1,9z"/>
		<path class="st0" d="M41.7,6.4c-0.1,0.2-0.1,0.5-0.2,0.7C41.6,6.9,41.7,6.6,41.7,6.4L41.7,6.4z"/>
		<path class="st2" d="M177.1,18.3c-5.8-2.4-12.4-4.5-19.7-6.5c-0.1,0-0.2,0-0.3-0.1c-0.1,0-0.3-0.1-0.4-0.1c-0.1,0-0.2,0-0.3-0.1
			c-0.7-0.2-1.3-0.3-2-0.5c-0.1,0-0.2,0-0.3-0.1c-0.1,0-0.2-0.1-0.3-0.1h0c-0.2-0.1-0.5-0.1-0.7-0.2c-0.1,0-0.2,0-0.3-0.1
			c-0.1,0-0.2,0-0.3-0.1h0c-1.6-0.4-3.1-0.7-4.7-1.1c-0.1,0-0.2,0-0.3-0.1V8.8c0.1,0,0.2,0,0.3,0.1c1.5,0.3,2.9,0.7,4.4,1.1
			c0.1,0,0.2,0.1,0.3,0.1c0.1,0,0.2,0.1,0.3,0.1c0.2,0,0.5,0.1,0.7,0.2h0c0.1,0,0.2,0.1,0.3,0.1c0.1,0,0.2,0.1,0.3,0.1
			c0.8,0.2,1.5,0.4,2.3,0.6c0.1,0,0.2,0,0.3,0.1c0.1,0,0.3,0.1,0.4,0.1c0.1,0,0.2,0,0.3,0.1C164.3,13.4,170.9,15.7,177.1,18.3z"/>
		<path class="st0" d="M121.7,5.1c0,0.1,0,0.2-0.1,0.2h0C121.6,5.3,121.6,5.2,121.7,5.1z"/>
	</g>
</g>
</svg>
