<?xml version="1.0" encoding="UTF-8"?>
<svg id="Layer_1" data-name="Layer 1" xmlns="http://www.w3.org/2000/svg" viewBox="0 0 220 22.24">
  <defs>
    <style>
      .cls-1 {
        fill: #fff;
      }

      .cls-2 {
        fill: #96c93c;
      }

      .cls-3 {
        fill: #4a484b;
      }
    </style>
  </defs>
  <g>
    <g>
      <path class="cls-3" d="m25.78,14.73c.1-.04.21-.06.31-.09v7.14h-1.28v-6.81c.11-.04.21-.06.32-.09.21-.06.42-.11.63-.16"/>
      <path class="cls-3" d="m25.77,12.83c-.21.06-.42.12-.63.17-.11.04-.21.06-.32.1V.3h1.28v11.2h4.78c-.67.17-1.35.34-2.02.52h-2.76v.72c-.1.02-.21.06-.31.09"/>
      <rect class="cls-3" x="36.13" y=".3" width="1.28" height="21.48"/>
    </g>
    <g>
      <path class="cls-1" d="m51.83,7.77c-.06.29-.12.6-.17.9.05-.3.11-.61.19-.9h-.01Z"/>
      <path class="cls-3" d="m69.13,6.92c.21-.01.43-.05.66-.06.11-.02.21-.04.32-.04,2.14,6.43-.68,15.1-8.73,15.04-7.25-.05-10.51-6.63-9.82-12.55.01-.11.02-.22.05-.33.01-.11.02-.22.05-.32.05-.3.11-.61.19-.9h-.01c.02-.11.06-.23.1-.34.02-.12.05-.23.09-.34,1.18-3.92,4.26-7.09,9.24-7.09,3.7,0,6.35,1.93,7.9,4.66-.11.01-.22.02-.34.04-.19.01-.37.04-.55.06-.11.01-.22.02-.34.04-1.33-2.57-3.56-4.38-6.68-4.39-4.33-.02-6.92,2.85-7.9,6.47-.04.11-.06.22-.09.33-.02.11-.06.23-.09.34-.06.3-.11.6-.15.9-.02.11-.04.22-.04.32-.02.11-.04.22-.04.34-.55,5.75,2.45,12.27,8.42,12.34,6.84.07,9.24-8.28,7.41-14.47.11-.02.22-.04.32-.05"/>
    </g>
    <g>
      <path class="cls-3" d="m97.88,21.78h-1.33l-5.73-9.21h-4.57v9.21h-1.29V.3h4.92c2.66,0,4.6.95,5.8,2.32-.14,0-.27.01-.41.01-.17.01-.34.01-.5.02-.14,0-.26.01-.4.01-.97-1.13-2.45-1.9-4.46-1.89l-3.66.04v2.29c-.11.01-.22.01-.32.02.1-.01.21-.01.32-.01v8.93l4.35.04c4.06.01,5.76-3.83,4.97-7.05h.32c.25-.01.51-.02.76-.04h.32c.89,3.1-.72,6.73-4.86,7.46l5.76,9.33Z"/>
      <path class="cls-3" d="m86.25,3.11h0c-.11.01-.22.01-.32.02.1-.01.21-.01.32-.02Z"/>
    </g>
    <rect class="cls-3" x="111.63" y=".3" width="1.28" height="21.48"/>
    <g>
      <path class="cls-3" d="m137.47,21.26v.52h-10.93v-.52l7.14-15.65c.12,0,.24.01.35.02.24.01.48.04.72.05.11.01.22.01.35.02l-7.09,15.55h9.46Z"/>
      <path class="cls-3" d="m137.31.3v.52l-1.12,2.46c-.11,0-.22-.01-.34-.02h-.01c-.24-.01-.47-.04-.71-.05-.11,0-.22-.01-.35-.01l1.08-2.37h-9.84V.3h11.28Z"/>
    </g>
    <g>
      <path class="cls-3" d="m150.13,10.33c0-.28.01-.55.02-.83-.02.28-.04.55-.04.83-.01.58.02,1.18.1,1.76-.06-.58-.1-1.18-.09-1.76Z"/>
      <path class="cls-1" d="m151.01,6.48h.01c.04-.09.06-.18.09-.28-.04.1-.07.19-.1.28Zm0,0h.01c.04-.09.06-.18.09-.28-.04.1-.07.19-.1.28Zm0,0h.01c.04-.09.06-.18.09-.28-.04.1-.07.19-.1.28Zm0,0h.01c.04-.09.06-.18.09-.28-.04.1-.07.19-.1.28Zm0,0h.01c.04-.09.06-.18.09-.28-.04.1-.07.19-.1.28Zm0,0h.01c.04-.09.06-.18.09-.28-.04.1-.07.19-.1.28Zm0,0h.01c.04-.09.06-.18.09-.28-.04.1-.07.19-.1.28Zm0,0h.01c.04-.09.06-.18.09-.28-.04.1-.07.19-.1.28Zm0,0h.01c.04-.09.06-.18.09-.28-.04.1-.07.19-.1.28Zm0,0h.01c.04-.09.06-.18.09-.28-.04.1-.07.19-.1.28Zm0,0h.01c.04-.09.06-.18.09-.28-.04.1-.07.19-.1.28Zm0,0h.01c.04-.09.06-.18.09-.28-.04.1-.07.19-.1.28Zm0,0h.01c.04-.09.06-.18.09-.28-.04.1-.07.19-.1.28Zm0,0h.01c.04-.09.06-.18.09-.28-.04.1-.07.19-.1.28Zm0,0h.01c.04-.09.06-.18.09-.28-.04.1-.07.19-.1.28Zm0,0h.01c.04-.09.06-.18.09-.28-.04.1-.07.19-.1.28Zm0,0h.01c.04-.09.06-.18.09-.28-.04.1-.07.19-.1.28Zm0,0h.01c.04-.09.06-.18.09-.28-.04.1-.07.19-.1.28Zm0,0h.01c.04-.09.06-.18.09-.28-.04.1-.07.19-.1.28Zm0,0h.01c.04-.09.06-.18.09-.28-.04.1-.07.19-.1.28Zm0,0h.01c.04-.09.06-.18.09-.28-.04.1-.07.19-.1.28Zm0,0h.01c.04-.09.06-.18.09-.28-.04.1-.07.19-.1.28Zm0,0h.01c.04-.09.06-.18.09-.28-.04.1-.07.19-.1.28Zm0,0h.01c.04-.09.06-.18.09-.28-.04.1-.07.19-.1.28Zm0,0h.01c.04-.09.06-.18.09-.28-.04.1-.07.19-.1.28Zm0,0h.01c.04-.09.06-.18.09-.28-.04.1-.07.19-.1.28Zm0,0h.01c.04-.09.06-.18.09-.28-.04.1-.07.19-.1.28Zm0,0h.01c.04-.09.06-.18.09-.28-.04.1-.07.19-.1.28Zm0,0h.01c.04-.09.06-.18.09-.28-.04.1-.07.19-.1.28Zm0,0h.01c.04-.09.06-.18.09-.28-.04.1-.07.19-.1.28Zm0,0h.01c.04-.09.06-.18.09-.28-.04.1-.07.19-.1.28Zm0,0h.01c.04-.09.06-.18.09-.28-.04.1-.07.19-.1.28Zm0,0h.01c.04-.09.06-.18.09-.28-.04.1-.07.19-.1.28Zm0,0h.01c.04-.09.06-.18.09-.28-.04.1-.07.19-.1.28Zm0,0h.01c.04-.09.06-.18.09-.28-.04.1-.07.19-.1.28Zm0,0h.01c.04-.09.06-.18.09-.28-.04.1-.07.19-.1.28Zm0,0h.01c.04-.09.06-.18.09-.28-.04.1-.07.19-.1.28Zm0,0h.01c.04-.09.06-.18.09-.28-.04.1-.07.19-.1.28Zm0,0h.01c.04-.09.06-.18.09-.28-.04.1-.07.19-.1.28Zm0,0h.01c.04-.09.06-.18.09-.28-.04.1-.07.19-.1.28Zm0,0h.01c.04-.09.06-.18.09-.28-.04.1-.07.19-.1.28Zm0,0h.01c.04-.09.06-.18.09-.28-.04.1-.07.19-.1.28Zm0,0h.01c.04-.09.06-.18.09-.28-.04.1-.07.19-.1.28Zm0,0h.01c.04-.09.06-.18.09-.28-.04.1-.07.19-.1.28Zm0,0h.01c.04-.09.06-.18.09-.28-.04.1-.07.19-.1.28Zm0,0h.01c.04-.09.06-.18.09-.28-.04.1-.07.19-.1.28Zm0,0h.01c.04-.09.06-.18.09-.28-.04.1-.07.19-.1.28Zm0,0h.01c.04-.09.06-.18.09-.28-.04.1-.07.19-.1.28Zm0,0h.01c.04-.09.06-.18.09-.28-.04.1-.07.19-.1.28Zm0,0h.01c.04-.09.06-.18.09-.28-.04.1-.07.19-.1.28Zm0,0h.01c.04-.09.06-.18.09-.28-.04.1-.07.19-.1.28Zm0,0h.01c.04-.09.06-.18.09-.28-.04.1-.07.19-.1.28Zm0,0h.01c.04-.09.06-.18.09-.28-.04.1-.07.19-.1.28Zm0,0h.01c.04-.09.06-.18.09-.28-.04.1-.07.19-.1.28Zm0,0h.01c.04-.09.06-.18.09-.28-.04.1-.07.19-.1.28Zm0,0h.01c.04-.09.06-.18.09-.28-.04.1-.07.19-.1.28Zm0,0h.01c.04-.09.06-.18.09-.28-.04.1-.07.19-.1.28Zm0,0h.01c.04-.09.06-.18.09-.28-.04.1-.07.19-.1.28Zm0,0h.01c.04-.09.06-.18.09-.28-.04.1-.07.19-.1.28Zm0,0h.01c.04-.09.06-.18.09-.28-.04.1-.07.19-.1.28Zm0,0h.01c.04-.09.06-.18.09-.28-.04.1-.07.19-.1.28Zm0,0h.01c.04-.09.06-.18.09-.28-.04.1-.07.19-.1.28Zm0,0h.01c.04-.09.06-.18.09-.28-.04.1-.07.19-.1.28Zm0,0h.01c.04-.09.06-.18.09-.28-.04.1-.07.19-.1.28Zm0,0h.01c.04-.09.06-.18.09-.28-.04.1-.07.19-.1.28Zm0,0h.01c.04-.09.06-.18.09-.28-.04.1-.07.19-.1.28Zm0,0h.01c.04-.09.06-.18.09-.28-.04.1-.07.19-.1.28Zm0,0h.01c.04-.09.06-.18.09-.28-.04.1-.07.19-.1.28Zm0,0h.01c.04-.09.06-.18.09-.28-.04.1-.07.19-.1.28Zm0,0h.01c.04-.09.06-.18.09-.28-.04.1-.07.19-.1.28Zm0,0h.01c.04-.09.06-.18.09-.28-.04.1-.07.19-.1.28Zm0,0h.01c.04-.09.06-.18.09-.28-.04.1-.07.19-.1.28Zm0,0h.01c.04-.09.06-.18.09-.28-.04.1-.07.19-.1.28Zm0,0h.01c.04-.09.06-.18.09-.28-.04.1-.07.19-.1.28Zm0,0h.01c.04-.09.06-.18.09-.28-.04.1-.07.19-.1.28Zm0,0h.01c.04-.09.06-.18.09-.28-.04.1-.07.19-.1.28Zm0,0h.01c.04-.09.06-.18.09-.28-.04.1-.07.19-.1.28Zm0,0h.01c.04-.09.06-.18.09-.28-.04.1-.07.19-.1.28Zm0,0h.01c.04-.09.06-.18.09-.28-.04.1-.07.19-.1.28Zm0,0h.01c.04-.09.06-.18.09-.28-.04.1-.07.19-.1.28Zm0,0h.01c.04-.09.06-.18.09-.28-.04.1-.07.19-.1.28Zm0,0h.01c.04-.09.06-.18.09-.28-.04.1-.07.19-.1.28Zm0,0h.01c.04-.09.06-.18.09-.28-.04.1-.07.19-.1.28Zm0,0h.01c.04-.09.06-.18.09-.28-.04.1-.07.19-.1.28Zm0,0h.01c.04-.09.06-.18.09-.28-.04.1-.07.19-.1.28Zm0,0h.01c.04-.09.06-.18.09-.28-.04.1-.07.19-.1.28Zm0,0h.01c.04-.09.06-.18.09-.28-.04.1-.07.19-.1.28Zm0,0h.01c.04-.09.06-.18.09-.28-.04.1-.07.19-.1.28Zm0,0h.01c.04-.09.06-.18.09-.28-.04.1-.07.19-.1.28Zm0,0h.01c.04-.09.06-.18.09-.28-.04.1-.07.19-.1.28Zm0,0h.01c.04-.09.06-.18.09-.28-.04.1-.07.19-.1.28Zm0,0h.01c.04-.09.06-.18.09-.28-.04.1-.07.19-.1.28Zm0,0h.01c.04-.09.06-.18.09-.28-.04.1-.07.19-.1.28Z"/>
      <path class="cls-3" d="m168.25,9.43h-.01c-.1-.02-.21-.05-.31-.06-.26-.04-.51-.07-.77-.12-.11-.01-.22-.04-.34-.05.73,5.8-1.84,12.31-7.89,12.25-6.69-.07-9.64-8.22-8.09-14.35.02-.11.05-.21.07-.3.04-.11.06-.21.1-.3h-.01c.02-.09.06-.18.1-.28.02-.1.06-.19.1-.28.06-.19.14-.38.21-.56.05-.1.1-.21.15-.3.04-.1.1-.19.15-.3,1.3-2.57,3.64-4.37,7.09-4.35,3.9.01,6.41,2.83,7.5,6.42.12.01.24.04.35.06.25.04.5.07.73.12.12.01.25.04.36.06-1.2-3.92-4.2-7.07-8.94-7.07-3.87,0-6.61,1.93-8.17,4.63-.06.1-.12.21-.17.3-.05.1-.1.19-.15.29h0c-.19.38-.35.74-.48,1.12-.04.1-.07.21-.11.3-.04.11-.07.21-.1.32-2,6.37,1.08,14.85,9.31,14.9,6.99.05,10.04-6.49,9.31-12.44Zm-13.3,11.3c.24.11.48.21.75.29.01.01.02.02.04.02-.27-.1-.53-.19-.78-.32Z"/>
    </g>
    <g>
      <path class="cls-3" d="m191.04,13.27h-.01c-.31-.07-.61-.15-.92-.22.31.07.62.15.93.23.15.02.29.06.42.1-.14-.04-.27-.07-.42-.11Z"/>
      <path class="cls-1" d="m189.27,12.85h0c.14.04.27.07.41.1-.14-.02-.27-.06-.41-.1Zm1.76.41h0c.15.04.29.07.42.11-.14-.04-.27-.07-.42-.11Zm-8.52-2.66v.78h.01v-.78h-.01Z"/>
      <path class="cls-3" d="m195.18.31v12.8c-.17-.05-.35-.1-.53-.15V.31h.53Z"/>
      <path class="cls-3" d="m195.17,14.92v6.86h-.52l-4.56-8.1c.14.04.29.07.42.1.32.07.63.15.94.23.15.04.27.06.42.1l2.77,4.82v-4.12c.17.04.35.09.52.12Z"/>
      <path class="cls-3" d="m190.62,11.89c-.15-.04-.29-.07-.43-.11-.3-.09-.61-.16-.92-.23-.14-.04-.29-.07-.42-.11l-5.79-10.28v20.61h-.53v-10.4h.01v-.78h-.01V.3h1.44l6.66,11.59Z"/>
    </g>
  </g>
  <g>
    <rect class="cls-3" x="182.52" y="10.6" width=".01" height=".78"/>
    <path class="cls-2" d="m182.52,10.6v.78h.01v-.78h-.01Zm-31.51-4.12h.01c.04-.09.06-.18.09-.28-.04.1-.07.19-.1.28Zm-99.18,1.29c-.06.29-.12.6-.17.9.05-.3.11-.61.19-.9h-.01Z"/>
    <path class="cls-2" d="m182.52,10.6v.78c-.11-.01-.2-.05-.31-.06-4.45-.91-9.03-1.75-13.74-2.51-.11-.01-.22-.04-.32-.05-.11-.01-.22-.04-.34-.05-.25-.04-.5-.09-.76-.12-.11-.02-.21-.04-.32-.05-.12-.02-.24-.04-.35-.05-4.89-.77-9.91-1.42-15.04-1.98-.1-.02-.21-.04-.32-.04.04-.09.06-.18.09-.28.02-.1.06-.19.1-.28.07-.19.15-.38.22-.56.11.01.22.02.34.05,4.84.57,9.65,1.24,14.38,2.03.11.01.24.04.35.05.12.02.24.04.35.06.25.04.5.07.75.12.11.02.22.04.35.06.1.02.22.04.32.06,4.72.81,9.38,1.71,13.95,2.74.11.02.2.05.31.07Z"/>
    <path class="cls-2" d="m150.31,5.24c-.19.36-.35.73-.48,1.11-.11-.01-.22-.02-.34-.04-4.52-.49-9.12-.89-13.79-1.2-.11,0-.22-.01-.34-.01-.11-.01-.22-.02-.35-.02-.24-.02-.47-.04-.72-.06-.11,0-.22-.01-.34-.01-.11-.01-.22-.02-.34-.02-6.58-.43-13.3-.68-20.08-.77v-1.22c6.91.06,13.79.33,20.63.79.11,0,.22.01.34.02.11,0,.22.01.34.02.25.01.48.02.72.05.12,0,.22.01.35.02.11,0,.22.01.34.02,4.6.33,9.18.75,13.71,1.26.11.01.24.02.35.05Z"/>
    <path class="cls-2" d="m110.98,2.98v1.22c-.7-.01-1.4-.01-2.11-.01-3.9,0-7.82.06-11.76.18-.11,0-.22,0-.35.01-.1,0-.22.01-.34.01-.24,0-.47.01-.72.02-.1,0-.21,0-.32.01-.11,0-.22,0-.32.01-2.72.09-5.44.22-8.17.39v-1.12c2.52-.16,5.04-.29,7.58-.4l.36-.02c.12,0,.24,0,.36-.01h.01c.19,0,.39-.01.58-.02.12,0,.25,0,.39-.01.11,0,.24-.01.37-.01,4.47-.17,8.97-.24,13.46-.24h.98Z"/>
    <path class="cls-2" d="m84.33,3.89v1.09c-4.71.29-9.4.69-14.11,1.19-.11.01-.22.02-.32.04-.11,0-.22.01-.34.04-.21.02-.41.04-.62.06-.11.01-.22.02-.34.05-.11,0-.22.01-.34.02h0c-4.98.56-9.96,1.22-14.92,1.99-.1.02-.21.05-.32.06.04-.3.09-.6.15-.9.11-.02.24-.04.35-.05,4.72-.79,9.51-1.47,14.37-2.04.11-.02.22-.02.34-.04.11-.02.21-.04.34-.05.19-.02.39-.05.57-.07.11,0,.22-.01.34-.04.12,0,.22-.01.35-.04,4.78-.54,9.63-.99,14.51-1.33Z"/>
    <path class="cls-2" d="m51.83,7.77c-.06.29-.12.6-.17.9-.11.01-.22.02-.34.05-4.56.74-9.09,1.59-13.59,2.54-.11.02-.22.05-.32.07v-.72c.1-.02.21-.05.32-.09,4.5-1,9.09-1.9,13.76-2.7.11-.02.21-.04.34-.06Z"/>
    <path class="cls-2" d="m36.12,10.9v.72c-.62.12-1.23.27-1.85.4-.46.11-.93.21-1.4.32-2.15.5-4.31,1.02-6.45,1.57-.1.02-.21.06-.32.09-.1.02-.21.05-.32.09-.2.05-.42.11-.63.17-.1.01-.21.05-.32.07-.1.04-.21.06-.31.1-8.38,2.2-16.58,4.8-24.5,7.83,7.66-3.2,15.87-6.01,24.5-8.4.1-.02.21-.06.31-.09.11-.04.22-.06.32-.09.21-.06.43-.12.63-.18.11-.02.22-.06.32-.09.11-.02.21-.06.32-.09,1.24-.34,2.48-.67,3.75-.99.41-.11.83-.21,1.24-.32.71-.17,1.43-.34,2.14-.51.45-.11.89-.22,1.33-.32.31-.07.62-.15.93-.21.11-.04.21-.06.31-.09Z"/>
    <path class="cls-3" d="m51.84,7.77c-.07.29-.14.6-.19.9.05-.3.11-.61.17-.9h.01Z"/>
    <path class="cls-2" d="m220,22.24c-7.2-2.89-15.45-5.53-24.5-7.87-.1-.02-.21-.06-.32-.09-.17-.04-.35-.09-.52-.12-.11-.04-.21-.06-.32-.09-.81-.21-1.61-.41-2.43-.61-.15-.04-.29-.06-.43-.1-.14-.04-.27-.07-.42-.11h-.01c-.31-.07-.61-.15-.92-.22-.14-.02-.29-.06-.42-.1-.14-.02-.27-.06-.41-.1h-.01c-1.94-.45-3.89-.88-5.89-1.29-.11-.02-.21-.05-.32-.07v-.77c.11.01.22.05.32.07,1.84.41,3.65.84,5.46,1.3.14.02.29.06.42.1.15.04.29.07.43.12.31.06.62.15.92.23h.01c.14.02.27.06.42.11.15.04.29.07.43.11.94.24,1.9.5,2.84.77.11.02.21.05.32.09.17.04.35.1.52.15.11.02.21.05.32.09,8.61,2.4,16.82,5.19,24.5,8.39Z"/>
    <path class="cls-3" d="m151.11,6.2c-.02.1-.05.19-.09.28h-.01c.02-.09.06-.18.1-.28Z"/>
  </g>
</svg>