<?xml version="1.0" encoding="utf-8"?>
<!-- Generator: Adobe Illustrator 27.6.1, SVG Export Plug-In . SVG Version: 6.00 Build 0)  -->
<svg version="1.1" id="Layer_1" xmlns="http://www.w3.org/2000/svg" xmlns:xlink="http://www.w3.org/1999/xlink" x="0px" y="0px"
	 viewBox="0 0 52 40" style="enable-background:new 0 0 52 40;" xml:space="preserve">
<path d="M26,32c-7.1,0-14.3,0-21.4,0c-0.9,0-1.7-0.2-2.5-0.6c-1.2-0.7-1.8-1.8-2-3.2c0-0.2,0-0.5,0-0.7c0-7.6,0-15.2,0-22.8
	c0-0.7,0.1-1.4,0.3-2C0.8,1.4,1.7,0.6,3,0.2C3.6,0.1,4.3,0,5,0c14.2,0,28.3,0,42.5,0c0.8,0,1.6,0.2,2.4,0.6c1.2,0.6,1.8,1.7,2,3
	C51.9,4,52,4.4,52,4.9c0,7.5,0,14.9,0,22.4c0,0.9-0.1,1.7-0.6,2.5c-0.7,1.2-1.7,1.8-3,2C48,32,47.5,32,47,32C40,32,33,32,26,32
	L26,32z M8,4C7.8,5,7.5,6,6.8,6.7C6,7.5,5,7.8,4,8c0,0.1,0,0.2,0,0.2c0,4.5,0,9,0,13.5c0,0.7,0,1.4,0,2c0,0.2,0,0.2,0.2,0.3
	c0.3,0.1,0.5,0.2,0.8,0.2c1.2,0.3,2,1.1,2.5,2.2c0.2,0.5,0.4,1.1,0.5,1.6H44c0-0.2,0.1-0.3,0.1-0.5c0.3-1.8,1.5-3,3.3-3.4
	c0.2,0,0.4-0.1,0.6-0.1V8c-1-0.2-2-0.5-2.8-1.3C44.5,6,44.2,5,44,4L8,4L8,4z"/>
<path d="M26,40c-7.1,0-14.2,0-21.3,0c-0.5,0-0.9-0.1-1.4-0.3c-0.8-0.3-1.3-1.1-1.2-1.8c0.1-0.8,0.7-1.6,1.5-1.7
	C4,36.1,4.4,36,4.8,36c14.1,0,28.3,0,42.4,0c0.4,0,0.9,0.1,1.3,0.2c0.8,0.2,1.3,0.8,1.5,1.6c0.1,0.6-0.3,1.5-0.9,1.8
	c-0.5,0.3-1.1,0.4-1.7,0.4C40.2,40,33.1,40,26,40z"/>
<path d="M26,24c-1.4,0-2.8,0-4.2,0c-0.4,0-0.7-0.1-1-0.4c-1.4-1.4-2.4-3.1-2.7-5.2c-0.4-2.7,0.3-5.2,1.9-7.4
	c1.1-1.5,2.6-2.4,4.5-2.9c1.9-0.5,3.7,0,5.3,1c2,1.2,3.1,3.1,3.8,5.3c0.3,1.1,0.5,2.3,0.3,3.5c-0.2,1.5-0.6,3-1.6,4.2
	c-0.4,0.5-0.8,1-1.2,1.5c-0.2,0.3-0.6,0.4-0.9,0.4C28.8,24,27.4,24,26,24L26,24z"/>
<path d="M10,14c1,0,2,1,2,2c0,1.2-0.8,1.9-2,1.9C8.9,18,8,17,8,16C8,14.9,8.9,14,10,14z"/>
<path d="M42,14c1,0,2,1,2,2c-0.1,1.2-0.8,1.9-2,1.9C40.9,18,40,17,40,16C40.1,15.1,40.7,14,42,14L42,14z"/>
</svg>
