<?xml version="1.0" encoding="utf-8"?>
<!-- Generator: Adobe Illustrator 27.6.1, SVG Export Plug-In . SVG Version: 6.00 Build 0)  -->
<svg version="1.1" id="Layer_1" xmlns="http://www.w3.org/2000/svg" xmlns:xlink="http://www.w3.org/1999/xlink" x="0px" y="0px"
	 viewBox="0 0 36.9 40" style="enable-background:new 0 0 36.9 40;" xml:space="preserve">
<path d="M18.4,40c-3.1,0-6.3-0.1-9.4,0c-4.5,0.2-7.8-3-8.7-7c-0.6-2.5-0.1-4.9,0.6-7.4c1.3-4.4,3.8-8.1,6.7-11.5
	c0.9-1,1.9-2,2.8-2.9c0.3-0.2,0.7-0.4,1.1-0.4c4.7,0,9.4,0,14.2,0c0.2,0,0.5,0.1,0.7,0.2c4.1,3.8,7.4,8.2,9.4,13.5
	c0.8,2.1,1.3,4.3,1.2,6.6c-0.2,3.6-1.7,6.4-5.1,8.1c-1.1,0.6-2.3,0.7-3.5,0.7C25,40,21.7,40,18.4,40L18.4,40z M16.9,16.1
	c0,0.6,0,1.2,0,1.9c0,0.5-0.1,0.6-0.6,0.8c-1.7,0.5-2.9,1.9-2.9,3.6c0,1.8,0.8,3,2.7,3.7c0.6,0.2,1.2,0.3,1.8,0.5
	c0.8,0.2,1.6,0.4,2.3,0.8c0.9,0.5,1,1.4,0.3,2c-1.2,1.1-4.1,0.8-4.7-0.8c-0.1-0.2-0.3-0.3-0.5-0.3c-0.5,0-1.1,0-1.6,0
	c-0.7,0-0.7,0.1-0.6,0.7c0.4,1.7,1.5,2.6,3,3.1c0.6,0.2,0.8,0.4,0.7,1c0,0.5,0,1.1,0,1.7H20v-2.3c0.7-0.3,1.4-0.5,2-0.9
	c1.4-0.9,1.9-2.2,1.7-3.8c-0.1-1.5-1-2.4-2.3-2.9c-0.5-0.2-1.1-0.3-1.7-0.5c-1-0.3-2.1-0.5-3-0.9c-0.7-0.3-0.7-1.3-0.2-1.9
	c1.2-1.1,3.7-0.9,4.2,0.7c0,0.1,0.2,0.3,0.4,0.3c0.8,0,1.6,0,2.3,0c0-0.2,0-0.2,0-0.3c0-0.1,0-0.2,0-0.3c-0.4-1.7-1.5-2.7-3.1-3.2
	c-0.4-0.1-0.5-0.3-0.5-0.6c0-0.7,0-1.3,0-2L16.9,16.1L16.9,16.1z"/>
<path d="M10.8,7.7c-0.5-1.3-0.9-2.6-1.4-4C9.1,2.4,9.7,1.6,11,1.5c1.2,0,2.4,0,3.6,0c0.3,0,0.6-0.1,0.8-0.3c1.7-1.6,4-1.6,5.8-0.1
	c0.4,0.3,0.7,0.5,1.2,0.4c1,0,2,0,3.1,0c0.3,0,0.7,0,1,0.1c0.7,0.2,1.2,0.9,1,1.7c-0.4,1.4-0.9,2.7-1.4,4.1
	c-0.1,0.1-0.4,0.2-0.6,0.2c-3.5,0-7,0-10.5,0C13.6,7.7,12.2,7.7,10.8,7.7L10.8,7.7z"/>
</svg>
