<?xml version="1.0" encoding="utf-8"?>
<!-- Generator: Adobe Illustrator 27.6.1, SVG Export Plug-In . SVG Version: 6.00 Build 0)  -->
<svg version="1.1" id="Layer_1" xmlns="http://www.w3.org/2000/svg" xmlns:xlink="http://www.w3.org/1999/xlink" x="0px" y="0px"
	 viewBox="0 0 30.8 40" style="enable-background:new 0 0 30.8 40;" xml:space="preserve">
<path d="M30.1,25l-2-3.3c-0.4-0.7-0.8-2.1-0.8-3v-5.1c0-4.7-2.8-8.8-6.7-10.7c-1-1.8-3-3-5.2-3c-2.2,0-4.1,1.2-5.2,3
	C6.3,5,3.6,9,3.6,13.6v5.1c0,0.8-0.4,2.2-0.8,2.9l-2,3.3c-0.8,1.3-1,2.8-0.5,4.2c0.5,1.3,1.6,2.4,3.1,2.9c3.9,1.3,8,2,12,2
	c4.1,0,8.2-0.6,12-1.9c1.4-0.5,2.5-1.5,3-2.9C31,27.8,30.8,26.3,30.1,25z"/>
<path d="M21,36c-0.8,2.3-3.1,4-5.7,4c-1.6,0-3.1-0.6-4.2-1.8c-0.6-0.6-1.1-1.4-1.4-2.2c0.3,0,0.5,0.1,0.8,0.1
	c0.5,0.1,0.9,0.1,1.4,0.2c1.1,0.1,2.3,0.2,3.5,0.2c1.1,0,2.3-0.1,3.4-0.2c0.4,0,0.8-0.1,1.2-0.1C20.4,36.1,20.7,36.1,21,36z"/>
</svg>
