<?xml version="1.0" encoding="utf-8"?>
<!-- Generator: Adobe Illustrator 27.6.1, SVG Export Plug-In . SVG Version: 6.00 Build 0)  -->
<svg version="1.1" id="Layer_1" xmlns="http://www.w3.org/2000/svg" xmlns:xlink="http://www.w3.org/1999/xlink" x="0px" y="0px"
	 viewBox="0 0 40 40" style="enable-background:new 0 0 40 40;" xml:space="preserve">
<path d="M13.2,35c-0.2-0.7-0.4-1.3-0.7-1.9c-0.1-0.2-0.4-0.5-0.6-0.6c-1-0.3-2.1-0.5-3.2-0.7c-0.2-0.1-0.5-0.3-0.6-0.5
	c-0.3-1.1-0.4-2.1-0.7-3.2c-0.1-0.3-0.4-0.6-0.6-0.7c-0.6-0.3-1.3-0.4-1.9-0.6c6.6-6.6,13.3-13.3,19.9-19.9c2.7,2.7,5.5,5.5,8.2,8.3
	C26.6,21.7,19.9,28.3,13.2,35L13.2,35z"/>
<path d="M28.3,3.4c0.8-0.8,1.6-1.7,2.4-2.4c1.4-1.3,3.2-1.3,4.6,0c1.3,1.2,2.6,2.5,3.8,3.8c1.3,1.4,1.3,3.1,0,4.6
	c-0.7,0.8-1.6,1.6-2.4,2.3C33.9,8.9,31.1,6.1,28.3,3.4L28.3,3.4z"/>
<path d="M1.7,33.9c1.5,1.5,2.9,2.8,4.5,4.3c-0.5,0.2-1,0.3-1.5,0.5c-1.2,0.4-2.3,0.8-3.5,1.2c-1,0.3-1.4-0.1-1.1-1.1
	C0.6,37.1,1.2,35.5,1.7,33.9z"/>
</svg>
