<?xml version="1.0" encoding="utf-8"?>
<!-- Generator: Adobe Illustrator 27.7.0, SVG Export Plug-In . SVG Version: 6.00 Build 0)  -->
<svg version="1.1" id="Layer_1" xmlns="http://www.w3.org/2000/svg" xmlns:xlink="http://www.w3.org/1999/xlink" x="0px" y="0px"
	 viewBox="0 0 126 126" style="enable-background:new 0 0 126 126;" xml:space="preserve">
<path d="M63,0C28.2,0,0,28.2,0,63c0,34.8,28.2,63,63,63c34.8,0,63-28.2,63-63C126,28.2,97.8,0,63,0z M42.9,74.1H32.5V51.8h4.2v18.3
	h6.2V74.1z M51.6,74.1h-4.2V51.8h4.2V74.1z M68.3,74.1h-4.1l-7.9-22.3h4.4l5.6,15.9L72,51.8h4.4L68.3,74.1z M93.5,55.9h-8v4h8v4.1
	h-8v5.9h8v4.2H81.3V51.8h12.2V55.9z"/>
</svg>
