<svg width="26" height="26" viewBox="0 0 26 26" fill="none" xmlns="http://www.w3.org/2000/svg">
<path d="M19.5972 6.58974C19.5972 9.95302 16.6435 12.6795 13 12.6795C9.35645 12.6795 6.40278 9.95302 6.40278 6.58974C6.40278 3.22647 9.35645 0.5 13 0.5C16.6435 0.5 19.5972 3.22647 19.5972 6.58974Z" fill="#374A16"/>
<path d="M25.5 25.5C25.5 23.9847 25.1767 22.4843 24.5485 21.0844C23.9203 19.6845 22.9996 18.4125 21.8388 17.3411C20.6781 16.2696 19.3001 15.4197 17.7835 14.8399C16.267 14.26 14.6415 13.9615 13 13.9615C11.3585 13.9615 9.73303 14.26 8.21646 14.8399C6.69989 15.4197 5.3219 16.2696 4.16116 17.3411C3.00043 18.4125 2.07969 19.6845 1.45151 21.0844C0.823322 22.4843 0.5 23.9847 0.5 25.5H25.5Z" fill="#374A16"/>
</svg>
