<?xml version="1.0" encoding="utf-8"?>
<!-- Generator: Adobe Illustrator 27.6.1, SVG Export Plug-In . SVG Version: 6.00 Build 0)  -->
<svg version="1.1" id="Layer_1" xmlns="http://www.w3.org/2000/svg" xmlns:xlink="http://www.w3.org/1999/xlink" x="0px" y="0px"
	 viewBox="0 0 40 40" style="enable-background:new 0 0 40 40;" xml:space="preserve">
<path d="M6.5,22.3c0.1-0.3,0.2-0.6,0.3-0.9c0.1-0.3,0.3-0.6,0.5-0.9c0.6-1,0.3-2.5-0.9-3.1c-0.3-0.2-0.6-0.4-0.9-0.5
	c-1.1-0.7-1.1-2.1-0.1-2.8c0.4-0.2,0.8-0.5,1.2-0.7c0.9-0.5,1.3-2,0.8-2.9C7.1,10,6.9,9.6,6.7,9.2C6.2,8.1,6.8,7,8.1,6.9
	c0.4-0.1,0.9-0.1,1.3-0.1c1.2,0,2.1-1.1,2.2-2c0-0.5,0-1,0.1-1.5c0.1-0.8,0.6-1.4,1.4-1.5c0.4,0,0.7,0.1,1.1,0.2
	c0.5,0.2,1,0.6,1.6,0.7c0.9,0.2,1.7,0,2.3-0.8c0.2-0.3,0.4-0.7,0.7-1c0.8-1.3,2.2-1.3,3,0.1c0.2,0.3,0.3,0.5,0.5,0.8
	c0.5,1.1,2.1,1.4,3.1,0.8c0.4-0.2,0.7-0.4,1.1-0.6c0.9-0.5,2.1,0.1,2.3,1.1c0.1,0.4,0.1,0.9,0.1,1.3c-0.1,1.3,1.1,2.3,2.3,2.3
	c0.4,0,0.9,0,1.3,0.1c1,0.2,1.6,1.2,1.2,2.2c-0.2,0.4-0.4,0.8-0.6,1.3c-0.6,1.1-0.2,2.3,0.8,3c0.3,0.2,0.7,0.4,1,0.6
	c1.1,0.8,1.2,2,0,2.9c-0.3,0.2-0.7,0.4-1,0.6c-1,0.6-1.3,2.1-0.8,2.9c0.2,0.3,0.4,0.7,0.6,1.1c0.6,1.3,0,2.3-1.4,2.5
	c-0.4,0.1-0.8,0-1.2,0.1c-1.3,0.1-2.1,0.9-2.1,2.2c0,0.4,0,0.8-0.1,1.2c-0.1,1.3-1.3,1.9-2.4,1.3c-0.4-0.2-0.7-0.4-1.1-0.6
	c-1.1-0.5-2.3-0.2-3,0.8c-0.2,0.3-0.4,0.7-0.6,1c-0.7,1.1-2,1.1-2.8,0.1c-0.2-0.3-0.4-0.6-0.6-1c-0.5-1-2.1-1.4-3-0.9
	c-0.3,0.2-0.7,0.4-1,0.6c-1.2,0.6-2.4,0.1-2.6-1.3c-0.1-0.4-0.1-0.8-0.1-1.2c0.1-1-1-2.3-2.1-2.2c-0.5,0-0.9,0-1.4-0.1
	C7.1,23.8,6.5,23.1,6.5,22.3L6.5,22.3z M21.6,21.9V9.6c-1,0-1.9,0-2.9,0c-0.2,0-0.3,0.1-0.5,0.2c-0.8,0.6-1.7,1.1-2.5,1.7
	c-0.1,0.1-0.3,0.2-0.3,0.4c0,0.8,0,1.7,0,2.6c1.1-0.7,2-1.4,3.1-2.1v9.5C18.5,21.9,21.6,21.9,21.6,21.9z"/>
<path d="M39.9,32.4h-7.5V40c-0.2-0.2-0.3-0.3-0.5-0.4c-2.4-2.4-4.9-4.9-7.3-7.3c-0.2-0.2-0.6-0.5-0.4-1c0.4,0.2,0.8,0.3,1.2,0.5
	c2.7,1,5.7-0.8,6.2-3.6c0.1-0.4,0-0.8,0.2-1c0.2-0.2,0.6-0.1,1-0.2c0.3-0.1,0.6-0.1,0.9-0.2c0.5-0.2,0.5-0.2,0.9,0.2
	c1.5,1.5,3,3,4.5,4.5c0.3,0.3,0.6,0.6,0.9,0.8C40,32.2,40,32.3,39.9,32.4L39.9,32.4z"/>
<path d="M8.4,27.2c0,1.2,0.4,2.2,1.2,3.1c0.8,0.9,1.8,1.5,3,1.7c1.2,0.2,2.3-0.2,3.4-0.6c0,0,0.1,0.1,0.1,0.1
	c-0.2,0.2-0.3,0.5-0.5,0.7c-1.6,1.7-3.3,3.3-4.9,5C9.7,38.1,8.8,39,7.7,40c0-2.6,0-5.1,0-7.7H0c0.3-0.3,0.6-0.6,0.9-0.9
	c1.5-1.5,3-3,4.5-4.5c0.3-0.3,0.6-0.4,1.1-0.2C7,27,7.7,27,8.4,27.2L8.4,27.2z"/>
</svg>
