<?xml version="1.0" encoding="utf-8"?>
<!-- Generator: Adobe Illustrator 27.6.1, SVG Export Plug-In . SVG Version: 6.00 Build 0)  -->
<svg version="1.1" id="Layer_1" xmlns="http://www.w3.org/2000/svg" xmlns:xlink="http://www.w3.org/1999/xlink" x="0px" y="0px"
	 viewBox="0 0 40.1 40" style="enable-background:new 0 0 40.1 40;" xml:space="preserve">
<path d="M39.7,16.8C39,12.7,37.1,8.9,34.2,6c-1.4-1.4-2.9-2.6-4.6-3.6c-1.8-1-3.9-1.7-5.9-2.1C15.5-1.2,7,2.8,2.9,9.9
	C0.9,13.1-0.2,17.2,0,21c0.3,4,1.7,7.9,4.1,11c2.4,3.2,5.8,5.6,9.5,6.8c2,0.7,4,1.1,6.1,1.1c2.2,0,4.4-0.4,6.4-1.1
	c3.9-1.3,7.4-3.8,9.9-7.1c1.2-1.6,2.1-3.5,2.8-5.4c0.7-2,1.2-4.2,1.2-6.3C40,18.9,39.9,17.8,39.7,16.8z M20.2,3.3
	c0.9,0.1,1.5,0.8,1.5,1.7c0,1-0.7,1.6-1.7,1.7c-1,0-1.7-0.7-1.7-1.8C18.4,3.9,19.2,3.2,20.2,3.3z M3.4,20.4
	c-0.2-1.1,0.5-2.2,1.7-2.1c2-0.2,2.2,2.9,0.4,3.3C4.6,21.8,3.6,21.4,3.4,20.4z M7,29.1c-1,0-1.7-0.6-1.7-1.6c0-2.1,3.3-2.2,3.3,0
	C8.6,28.4,8,29.1,7,29.1z M5.4,12.5c0-0.9,0.6-1.6,1.5-1.7c1-0.1,1.9,0.6,1.8,1.6C8.6,14.6,5.3,14.7,5.4,12.5z M12.6,5.3
	c0.9,0,1.5,0.7,1.5,1.6c0,1-0.7,1.7-1.7,1.7c-0.9,0-1.6-0.7-1.6-1.6C10.9,5.9,11.5,5.3,12.6,5.3z M12.6,34.6c-2.2,0.1-2.2-3.3,0-3.3
	C14.6,31.4,14.7,34.6,12.6,34.6z M20,36.7c-2,0.1-2.3-3.1-0.3-3.3c0.9-0.1,1.9,0.3,2,1.4C21.8,35.7,21.1,36.7,20,36.7z M24.2,26.4
	c-1.2,0-2.2-1-2.2-2.2c0,0,0-0.1,0-0.1l-1.8-1.9L18,24.3c-0.1,1.2-1.1,2.1-2.2,2.1s-2.2-1-2.2-2.2s1-2.2,2.2-2.2c0.1,0,0.2,0,0.4,0
	l1.9-1.9l-2-2c-0.1,0-0.1,0-0.2,0c-1.2,0-2.2-1-2.2-2.2s1-2.2,2.2-2.2s2.2,1,2.2,2.2v0l2.1,2.1l1.9-1.9c0-0.1,0-0.2,0-0.3
	c0-1.2,1-2.2,2.2-2.2c1.2,0,2.2,1,2.2,2.2s-1,2.2-2.2,2.2l-2,2l1.9,1.9c0,0,0.1,0,0.1,0c1.2,0,2.2,1,2.2,2.2S25.5,26.4,24.2,26.4z
	 M27.5,34.6c-2.2,0-2-3.3,0.1-3.3C29.7,31.4,29.6,34.7,27.5,34.6z M27.6,8.6c-2.1,0-2.2-3.2-0.1-3.3C29.6,5.2,29.8,8.6,27.6,8.6z
	 M33.1,10.8c0.9,0,1.6,0.7,1.6,1.7c0,0.9-0.8,1.7-1.8,1.7C30.7,13.9,31,10.8,33.1,10.8z M33,29.1c-0.9,0-1.8-0.8-1.7-1.7
	c0.1-0.9,0.7-1.6,1.7-1.6C35.2,25.8,35.2,29.2,33,29.1z M36.7,20.3c-0.4,1.9-3.3,1.6-3.3-0.3c-0.1-1,0.8-1.8,1.7-1.7
	C36.2,18.4,36.9,19.2,36.7,20.3z"/>
</svg>
