<?xml version="1.0" encoding="utf-8"?>
<!-- Generator: Adobe Illustrator 27.6.1, SVG Export Plug-In . SVG Version: 6.00 Build 0)  -->
<svg version="1.1" id="Layer_1" xmlns="http://www.w3.org/2000/svg" xmlns:xlink="http://www.w3.org/1999/xlink" x="0px" y="0px"
	 viewBox="0 0 40 40" style="enable-background:new 0 0 40 40;" xml:space="preserve">
<path d="M38.6,40c-0.4,0-0.7-0.1-1-0.4l-3.7-3.7c-0.5-0.5-0.5-1.4,0-2c0.5-0.5,1.4-0.5,2,0l3.7,3.7c0.5,0.5,0.5,1.4,0,2
	C39.3,39.9,39,40,38.6,40z"/>
<path d="M19,0C8.5,0,0,8.5,0,19s8.5,19,19,19s19-8.5,19-19S29.5,0,19,0z M19,36.7C9.2,36.7,1.3,28.8,1.3,19S9.2,1.3,19,1.3
	S36.7,9.2,36.7,19S28.8,36.7,19,36.7z"/>
</svg>
