<?xml version="1.0" encoding="utf-8"?>
<!-- Generator: Adobe Illustrator 27.7.0, SVG Export Plug-In . SVG Version: 6.00 Build 0)  -->
<svg version="1.1" id="Layer_1" xmlns="http://www.w3.org/2000/svg" xmlns:xlink="http://www.w3.org/1999/xlink" x="0px" y="0px"
	 viewBox="0 0 24 24" style="enable-background:new 0 0 24 24;" xml:space="preserve">
<path d="M17,0H7C2.6,0,0,2.6,0,7v10c0,4.4,2.6,7,7,7h10c4.4,0,7-2.6,7-7V7C24,2.6,21.4,0,17,0z M6.8,4.2c0-0.5,0.4-0.9,0.9-0.9
	c0.5,0,0.9,0.4,0.9,0.9v4.7c0,0.5-0.4,0.9-0.9,0.9c-0.5,0-0.9-0.4-0.9-0.9V4.2z M9,17.3c-0.2,0.1-0.4,0.4-0.4,0.6v1.9
	c0,0.5-0.4,0.9-0.9,0.9c-0.5,0-0.9-0.4-0.9-0.9v-1.9c0-0.2-0.2-0.5-0.4-0.6c-1.1-0.5-1.9-1.6-1.9-3c0-1.8,1.4-3.3,3.2-3.3
	s3.3,1.4,3.3,3.3C11,15.7,10.2,16.8,9,17.3z M17.2,19.8c0,0.5-0.4,0.9-0.9,0.9c-0.5,0-0.9-0.4-0.9-0.9v-4.7c0-0.5,0.4-0.9,0.9-0.9
	c0.5,0,0.9,0.4,0.9,0.9V19.8z M16.3,12.9c-1.8,0-3.3-1.4-3.3-3.3c0-1.3,0.8-2.5,2-3c0.2-0.1,0.4-0.4,0.4-0.6V4.2
	c0-0.5,0.4-0.9,0.9-0.9c0.5,0,0.9,0.4,0.9,0.9v1.9c0,0.2,0.2,0.5,0.4,0.6c1.1,0.5,1.9,1.6,1.9,3C19.6,11.5,18.1,12.9,16.3,12.9z"/>
</svg>
