<?xml version="1.0" encoding="utf-8"?>
<!-- Generator: Adobe Illustrator 27.6.1, SVG Export Plug-In . SVG Version: 6.00 Build 0)  -->
<svg version="1.1" id="Layer_1" xmlns="http://www.w3.org/2000/svg" xmlns:xlink="http://www.w3.org/1999/xlink" x="0px" y="0px"
	 viewBox="0 0 45.2 40" style="enable-background:new 0 0 45.2 40;" xml:space="preserve">
<g>
	<path d="M1.7,36.5c0-7.4,0-14.8,0-22.2c0-2.8,0-5.6,0-8.5c0-2.7,1.4-4.2,4.1-4.1c2,0,3.8-0.2,5.7-0.8c4.1-1.3,8.2-1.2,12.3,0.2
		c1.4,0.5,2.8,0.7,4.2,0.7c0.6,0,1.2,0,1.7,0c2.1,0.4,3.2,1.8,3.2,4c0,9.9,0,19.9,0,29.8c0,0.6,0.1,0.9,0.7,1.2c0.7,0.3,1,0.8,1,1.6
		c0,0.7-0.6,1.3-1.3,1.5C33,39.9,32.7,40,32.3,40c-10,0-19.9,0-29.9,0c-0.4,0-0.8,0-1.1-0.2C0.5,39.6,0,39,0,38.2
		c0-0.6,0.5-1.3,1.1-1.5C1.3,36.6,1.5,36.6,1.7,36.5L1.7,36.5z M17.4,20.9C17.4,20.9,17.4,20.9,17.4,20.9c2.9,0,5.8,0,8.8,0
		c1.9,0,3.3-1.3,3.4-3.2c0.1-2.4,0.1-4.8,0-7.2c0-2-1.4-3.5-3.1-3.5c-6,0-11.9,0-17.9,0c-2,0-3.3,1.5-3.3,3.5c0,2.3,0,4.6,0,6.9
		c0,2,1.5,3.5,3.5,3.5C11.6,20.9,14.5,20.9,17.4,20.9L17.4,20.9z M26,26.1H8.7V33H26V26.1z"/>
	<path d="M36.5,26.2v-3.6c0.6,0,1.1,0,1.7,0c1.1,0,1.7-0.6,1.7-1.6c0-3,0-6,0-9c0-0.2-0.2-0.4-0.4-0.5c-1.1-0.9-1.6-2.4-1.2-3.7
		c0.5-1.4,1.8-2.4,3.3-2.4c1.4,0,2.8,0.9,3.3,2.3c0.5,1.3,0.1,2.8-1,3.7c-0.4,0.3-0.5,0.7-0.5,1.2c0,2.7,0,5.4,0,8.1
		c0,2.7-1.4,4.7-3.6,5.3C38.7,26,37.7,26,36.5,26.2L36.5,26.2z"/>
	<path d="M12.1,10.5v6.9H8.7v-6.9H12.1z"/>
	<path d="M19,17.4h-3.4v-6.9H19V17.4z"/>
	<path d="M22.6,10.5H26v6.9h-3.4V10.5z"/>
</g>
<circle cx="41.6" cy="8.8" r="3.5"/>
</svg>
