<?xml version="1.0" encoding="utf-8"?>
<!-- Generator: Adobe Illustrator 27.7.0, SVG Export Plug-In . SVG Version: 6.00 Build 0)  -->
<svg version="1.1" id="Layer_1" xmlns="http://www.w3.org/2000/svg" xmlns:xlink="http://www.w3.org/1999/xlink" x="0px" y="0px"
	 viewBox="0 0 24 24" style="enable-background:new 0 0 24 24;" xml:space="preserve">
<g>
	<path d="M17,0H7C2.6,0,0,2.6,0,7V17c0,3.4,1.6,5.7,4.3,6.5C5,23.9,6,24,7,24H17c1,0,1.9-0.1,2.7-0.4c2.7-0.8,4.3-3.2,4.3-6.5V7
		C24,2.6,21.4,0,17,0z M22.2,17c0,2.6-1,4.2-3.1,4.9C18,19.6,15.2,18,12,18s-6,1.6-7.1,3.9l0,0c-2-0.7-3-2.3-3-4.9V7
		C1.8,3.6,3.6,1.8,7,1.8H17c3.4,0,5.2,1.8,5.2,5.2V17z"/>
	<path d="M12,7.2c-2.4,0-4.3,1.9-4.3,4.3s1.9,4.3,4.3,4.3s4.3-1.9,4.3-4.3S14.4,7.2,12,7.2z"/>
</g>
</svg>
