<?xml version="1.0" encoding="utf-8"?>
<!-- Generator: Adobe Illustrator 27.6.1, SVG Export Plug-In . SVG Version: 6.00 Build 0)  -->
<svg version="1.1" id="Layer_1" xmlns="http://www.w3.org/2000/svg" xmlns:xlink="http://www.w3.org/1999/xlink" x="0px" y="0px"
	 viewBox="0 0 739.9 740" style="enable-background:new 0 0 739.9 740;" xml:space="preserve">
<path d="M390.9,0.6C180.7-11.6,8.6,153.1,0.3,356.3c-7.9,193.6,146.4,380.6,364.8,383.6c187,4.4,365.3-145.9,374.4-354.3
	C748.3,188.5,600.2,12.4,390.9,0.6z M617.2,565.6c-6.6,8.3-14,16.2-21,24.5c-0.4,0-0.9,0.9-0.9,0.9c-12.2-10.9-23.2-22.3-35.4-31.5
	c-29.7-22.3-63.4-35.4-99.2-44.6c-29.3-7.9-59-11.4-89.1-11.4c-67.3,0.9-131.5,14.4-187.9,54.2c-12.2,8.7-22.3,19.7-33.2,29.7
	c-3.1,2.6-4.4,3.5-7.4,0.4c-17.5-17-31-36.7-43.7-57.2C74.1,489.6,60.1,445,56.2,396.9c-6.1-81.7,15.3-156,66-221.1
	c31-40.2,69.9-70.8,116.2-92.2c43.7-20.5,90.4-28.8,138.5-28c27.5,0,55.1,4.8,81.7,12.2c80.4,22.7,140.7,71.7,183.5,142.4
	c35,58.5,48.1,122.3,41.9,190.1C678.4,462,655.7,517.1,617.2,565.6z M366.9,182.8c-73.4,1.3-137.6,62.9-134.6,142.9
	c2.6,80,67.7,132.8,139.4,134.1c78.2-1.3,139.8-67.3,136.8-144.2C505.8,240.1,443.3,181.1,366.9,182.8z"/>
<path d="M390.9,0.6C180.7-11.6,8.6,153.1,0.3,356.3c-7.9,193.6,146.4,380.6,364.8,383.6c187,4.4,365.3-145.9,374.4-354.3
	C748.3,188.5,600.2,12.4,390.9,0.6z M617.2,565.6c-6.6,8.3-14,16.2-21,24.5c-0.4,0-0.9,0.9-0.9,0.9c-12.2-10.9-23.2-22.3-35.4-31.5
	c-29.7-22.3-63.4-35.4-99.2-44.6c-29.3-7.9-59-11.4-89.1-11.4c-67.3,0.9-131.5,14.4-187.9,54.2c-12.2,8.7-22.3,19.7-33.2,29.7
	c-3.1,2.6-4.4,3.5-7.4,0.4c-17.5-17-31-36.7-43.7-57.2C74.1,489.6,60.1,445,56.2,396.9c-6.1-81.7,15.3-156,66-221.1
	c31-40.2,69.9-70.8,116.2-92.2c43.7-20.5,90.4-28.8,138.5-28c27.5,0,55.1,4.8,81.7,12.2c80.4,22.7,140.7,71.7,183.5,142.4
	c35,58.5,48.1,122.3,41.9,190.1C678.4,462,655.7,517.1,617.2,565.6z"/>
<path d="M508.4,315.7c3.1,76.9-58.5,142.9-136.8,144.2c-71.7-1.3-136.8-54.2-139.4-134.1c-3.1-80,61.2-141.6,134.6-142.9
	C443.3,181.1,505.8,240.1,508.4,315.7z"/>
</svg>
